<svg width="64" height="140" viewBox="0 0 64 140" fill="none" xmlns="http://www.w3.org/2000/svg">
<path d="M59.4828 131.842C58.0662 130.838 56.4762 130.104 54.7928 129.678C53.8645 129.443 52.8951 129.42 51.9568 129.611C50.6038 129.911 49.7008 130.403 49.3428 131.817C49.2328 132.253 49.1118 132.686 48.9958 133.117C48.7429 133.978 48.5688 134.861 48.4758 135.753C48.3882 136.47 48.4917 137.197 48.7758 137.86C49.0328 138.392 49.8138 139.319 50.4758 139.326C52.4258 140.081 54.9928 139.807 57.0278 139.698C58.7488 139.605 61.5278 139.717 63.0198 138.728C65.8558 136.851 60.9948 132.88 59.4828 131.842Z" fill="#1A1818"/>
<path d="M60.4918 138.684C57.5449 139.231 54.5296 139.303 51.5598 138.899C47.4178 138.11 49.7298 133.822 50.1788 131.172C50.1838 131.172 50.1898 131.172 50.1948 131.162C52.4858 128.981 56.4368 130.696 58.7068 132.136C59.8431 132.854 60.8675 133.735 61.7468 134.751C62.2404 135.219 62.6441 135.774 62.9378 136.387C63.5028 138.48 61.5638 138.527 60.4918 138.684Z" fill="#1A1818"/>
<path d="M36.3058 130.933L36.2738 130.899C36.0969 130.741 35.8885 130.621 35.6622 130.549C35.436 130.476 35.197 130.452 34.9608 130.478C34.4635 130.44 33.9651 130.421 33.4658 130.42C32.4717 130.419 31.4789 130.492 30.4958 130.64C28.5263 130.936 26.6135 131.531 24.8238 132.404C24.4098 132.604 24.0035 132.821 23.6048 133.055C22.0278 133.972 16.0888 138.212 20.7348 139.114C23.2864 139.511 25.8726 139.639 28.4508 139.495C30.9369 139.526 33.4187 139.281 35.8508 138.765C36.5899 138.658 37.2742 138.314 37.8009 137.785C38.3277 137.256 38.6684 136.57 38.7718 135.83C38.8357 134.868 38.5771 133.912 38.0368 133.113C37.768 132.701 37.4702 132.309 37.1458 131.938C36.8688 131.606 36.6008 131.252 36.3058 130.933Z" fill="#1A1818"/>
<path d="M37.4338 137.255C36.1918 138.511 33.6108 138.476 32.0038 138.62C28.5722 138.941 25.1172 138.919 21.6898 138.556C20.4378 138.713 19.9611 138.013 20.2598 136.456C20.5085 136.208 20.7641 135.968 21.0268 135.735C21.6618 135.173 22.3362 134.656 23.0448 134.189C24.3404 133.336 25.7363 132.645 27.2008 132.133C28.5428 131.675 29.9352 131.379 31.3478 131.253C32.0598 131.185 32.7748 131.153 33.4898 131.145C33.7898 131.145 34.0898 131.179 34.3898 131.164C34.734 131.116 35.0843 131.134 35.4218 131.217C35.6961 131.332 35.9287 131.527 36.0878 131.778C36.3108 132.054 36.5778 132.296 36.8028 132.571C37.194 133.03 37.5296 133.534 37.8028 134.071C38.0968 134.57 38.2199 135.151 38.1533 135.725C38.0866 136.3 37.834 136.837 37.4338 137.255Z" fill="#1A1818"/>
<path d="M58.8298 130.833L45.4688 68.7334C45.4769 68.6838 45.4745 68.6331 45.4617 68.5845C45.449 68.536 45.4262 68.4906 45.3948 68.4514C45.3741 68.4063 45.3431 68.3666 45.3044 68.3355C45.2656 68.3045 45.2202 68.2829 45.1716 68.2725C45.1231 68.2621 45.0728 68.2632 45.0247 68.2757C44.9766 68.2882 44.9322 68.3117 44.8948 68.3444C37.3055 68.2601 29.7481 69.3392 22.4858 71.5444C22.4173 71.5648 22.3577 71.6078 22.3168 71.6664C22.272 71.656 22.2254 71.6566 22.1808 71.668C22.1363 71.6794 22.0951 71.7012 22.0607 71.7318C22.0264 71.7623 21.9998 71.8006 21.9833 71.8435C21.9668 71.8865 21.9608 71.9327 21.9658 71.9784C23.5138 91.9784 25.0618 111.975 26.6098 131.968C26.5901 132.009 26.5801 132.054 26.5806 132.099C26.581 132.144 26.592 132.189 26.6125 132.229C26.633 132.269 26.6626 132.304 26.6989 132.331C26.7352 132.358 26.7773 132.376 26.8218 132.384C30.3089 133.128 33.909 133.17 37.4128 132.51C37.4604 132.502 37.5052 132.482 37.5434 132.452C37.5817 132.423 37.6122 132.385 37.6324 132.341C37.6526 132.297 37.662 132.249 37.6596 132.2C37.6572 132.152 37.6432 132.105 37.6188 132.063C37.6464 132.034 37.6676 131.999 37.6809 131.961C37.6941 131.923 37.6992 131.883 37.6958 131.842C36.9891 118.182 36.2821 104.522 35.5748 90.8624L35.8078 91.5924L37.5908 97.1754L41.1588 108.341L44.7248 119.506C45.4698 121.838 46.2678 124.153 47.0108 126.485C47.3828 127.65 47.7418 128.82 48.0708 129.997C48.3248 130.904 48.3268 132.097 49.0708 132.804C49.9608 133.648 51.4958 133.193 52.5708 133.112C54.6786 132.946 56.7322 132.362 58.6118 131.393C58.6679 131.368 58.7142 131.325 58.7439 131.271C58.7737 131.217 58.7852 131.154 58.7768 131.093C58.8035 131.056 58.8221 131.014 58.8312 130.969C58.8404 130.924 58.8399 130.878 58.8298 130.833Z" fill="#1A1818"/>
<path d="M50.1178 132.427C49.4578 132.373 49.4808 132.282 49.2888 131.663C47.0078 124.29 44.6158 116.949 42.2678 109.597C39.8918 102.161 37.5161 94.7241 35.1408 87.2874L34.7128 85.9494C34.5818 85.5384 33.9298 85.7064 34.0618 86.1204C34.1938 86.5344 34.3968 86.9074 34.5188 87.3204C34.8283 88.7192 34.9699 90.15 34.9408 91.5824L35.0808 94.2824L35.3608 99.6934C35.5474 103.3 35.7341 106.907 35.9208 110.514L36.4808 121.335C36.6621 124.834 36.8431 128.334 37.0238 131.835C37.027 131.855 37.032 131.875 37.0388 131.893C37.0448 131.92 34.8388 132.193 34.6388 132.211C33.8261 132.278 33.0111 132.309 32.1938 132.305C31.34 132.296 30.4872 132.243 29.6388 132.147C29.2061 132.099 28.7748 132.042 28.3448 131.974C28.0448 131.927 27.4058 131.993 27.2348 131.688C27.0888 131.428 27.2068 130.979 27.1848 130.688C27.1508 130.246 27.1174 129.804 27.0848 129.361C27.0181 128.477 26.9495 127.592 26.8788 126.707C26.7421 124.938 26.6051 123.169 26.4678 121.399C26.1945 117.861 25.9204 114.322 25.6458 110.783C25.3711 107.245 25.0975 103.706 24.8248 100.166C24.5508 96.6277 24.2771 93.0891 24.0038 89.5504C23.7305 86.0117 23.4565 82.4727 23.1818 78.9334L22.6608 72.1914C29.8501 70.0087 37.3309 68.9384 44.8438 69.0174L58.1518 130.871C56.5174 131.693 54.7474 132.212 52.9278 132.401C51.9939 132.496 51.0533 132.504 50.1178 132.427Z" fill="white"/>
<path d="M25.0768 33.3293C24.4688 32.8373 23.9938 33.2033 23.3408 33.4653C22.7255 33.7127 22.1141 33.9703 21.5068 34.2383C20.2955 34.7757 19.1041 35.3557 17.9328 35.9783C15.592 37.2239 13.3474 38.6425 11.2178 40.2223C10.6845 40.619 10.1588 41.0253 9.64081 41.4413C7.40537 43.2354 5.31978 45.2086 3.40479 47.3413C2.11179 48.7843 0.597812 50.5143 0.550812 52.5633C0.559475 53.4221 0.844286 54.2552 1.36313 54.9396C1.88197 55.6239 2.60728 56.1231 3.43179 56.3633C5.70179 57.1633 8.0378 56.2483 10.0968 55.2743C12.9645 53.9095 15.7506 52.3793 18.4408 50.6913C20.9301 49.2852 23.2537 47.604 25.3678 45.6793C26.7734 44.2927 27.6545 42.4613 27.8605 40.4976C28.0666 38.5339 27.585 36.5596 26.4978 34.9113C26.1082 34.3511 25.6544 33.8383 25.1458 33.3833L25.0768 33.3293Z" fill="#1A1818"/>
<path d="M21.5418 47.8533C19.0994 49.5459 16.5707 51.1104 13.9658 52.5403C11.2948 54.0073 7.88681 56.3053 4.72981 55.9633C2.66781 55.7393 0.863826 54.2043 1.28783 51.9763C1.65391 50.6537 2.35081 49.4461 3.31282 48.4673C5.09944 46.3886 7.05477 44.4611 9.15883 42.7043C13.7417 38.8652 18.9406 35.8284 24.5358 33.7224C24.5558 33.7605 24.5829 33.7945 24.6158 33.8223C25.7047 34.7593 26.5125 35.9799 26.9494 37.3484C27.3864 38.7169 27.4353 40.1797 27.0908 41.5743C26.3498 44.4453 23.8498 46.2523 21.5418 47.8533Z" fill="white"/>
<path d="M48.7298 37.5014C48.6425 37.0737 48.5333 36.6509 48.4028 36.2344C48.3084 35.7772 48.1569 35.3337 47.9518 34.9144C47.7242 34.5905 47.4012 34.3458 47.0278 34.2144C46.6278 34.0534 46.2678 33.8264 45.8838 33.6394C45.3565 33.3827 44.8211 33.1427 44.2778 32.9194C43.1946 32.4738 42.084 32.098 40.9528 31.7944C38.6866 31.1836 36.3498 30.8743 34.0028 30.8744C33.6028 30.8744 33.2028 30.884 32.8028 30.9034C28.7028 31.0974 23.6768 32.0544 21.3318 35.8214C20.298 37.7288 19.6859 39.836 19.5368 42.0004C19.165 44.94 18.9819 47.9004 18.9888 50.8634C19.0029 53.821 19.2157 56.7743 19.6258 59.7034C19.9548 62.1274 20.5978 64.6324 20.8738 67.1144C21.0263 69.7341 20.9996 72.3613 20.7938 74.9774C20.7941 75.036 20.8095 75.0935 20.8385 75.1445C20.8675 75.1954 20.9091 75.238 20.9593 75.2681C21.0096 75.2983 21.0668 75.315 21.1254 75.3166C21.1839 75.3182 21.2419 75.3047 21.2938 75.2774L25.6458 73.4554C27.7558 72.5714 29.5698 71.5064 31.5408 73.3344C32.9648 74.6554 34.0768 76.6404 36.2598 76.6484C38.6098 76.6574 40.9598 74.6254 42.8968 73.4994C43.8961 73.0342 44.8568 72.4901 45.7698 71.8724C46.1797 71.4455 46.48 70.9257 46.6453 70.3575C46.8106 69.7893 46.8358 69.1895 46.7188 68.6094C46.6238 67.2714 46.5108 65.9974 46.5188 64.6514C46.5338 63.0444 46.5558 61.4384 46.5738 59.8324C46.6351 58.3357 46.7275 56.8414 46.8508 55.3494C46.9748 53.8764 47.3258 52.3494 47.3428 50.8724C47.6678 48.6394 48.2098 46.4454 48.5738 44.2194C49.0157 42.0061 49.0685 39.7328 48.7298 37.5014Z" fill="#1A1818"/>
<path d="M47.8178 44.3984C47.3358 47.0784 46.8058 49.7394 46.4608 52.4424C46.0914 55.3391 45.8645 58.2487 45.7798 61.1714C45.7344 62.6774 45.7258 64.1837 45.7538 65.6904C45.7678 66.4804 45.7348 67.2844 45.8188 68.0704C45.9408 69.2134 46.4018 70.2514 45.4838 71.1824C44.6765 71.8167 43.7892 72.3419 42.8448 72.7444C41.7298 73.3934 40.6168 74.0444 39.4998 74.6914C37.9088 75.6124 36.2798 76.5304 34.5198 75.3744C33.6183 74.6052 32.7821 73.7627 32.0198 72.8554C31.5207 72.2937 30.8673 71.8913 30.1411 71.6983C29.4148 71.5054 28.6479 71.5304 27.9358 71.7704C25.7408 72.4874 23.6048 73.5444 21.4748 74.4624C21.5155 72.8831 21.5558 71.3041 21.5958 69.7254C21.51 67.2863 21.1899 64.8612 20.6398 62.4834C20.2036 59.8932 19.9105 57.2809 19.7618 54.6584C19.7271 54.0291 19.7011 53.3991 19.6838 52.7684C19.5508 48.0214 19.4618 42.4924 21.0578 37.9604C22.8428 32.8914 28.5578 31.6714 33.3578 31.5494C38.2349 31.4395 43.0478 32.6772 47.2668 35.1264C48.6548 38.0754 48.3808 41.2704 47.8178 44.3984Z" fill="white"/>
<path d="M42.8438 72.7494C43.7882 72.3469 44.6755 71.8217 45.4828 71.1874C46.4008 70.2564 45.9398 69.2184 45.8178 68.0754C45.7338 67.2894 45.7668 66.4854 45.7528 65.6954C45.7255 64.1887 45.7345 62.6824 45.7798 61.1764C45.8665 58.2584 46.0935 55.3487 46.4608 52.4474C46.8058 49.7474 47.3358 47.0834 47.8178 44.4034C48.3808 41.2754 48.6548 38.0794 47.2708 35.1334C46.8428 34.8864 46.4078 34.6554 45.9708 34.4334C45.6546 43.0912 44.0153 51.6496 41.1098 59.8114C39.3908 64.5984 36.9478 69.4464 32.5968 72.3514C32.3741 72.4964 32.1441 72.6299 31.9078 72.7514C31.9478 72.7874 31.9878 72.8204 32.0268 72.8584C32.7891 73.7657 33.6253 74.6082 34.5268 75.3774C36.2868 76.5324 37.9148 75.6144 39.5068 74.6934C40.6158 74.0494 41.7258 73.3934 42.8438 72.7494Z" fill="#C9D6DC"/>
<path d="M32.5578 34.2183C31.9184 34.2031 31.2956 34.4221 30.8064 34.8341C30.3173 35.2461 29.9955 35.8227 29.9018 36.4553C29.8657 36.4935 29.8398 36.5402 29.8267 36.5911C29.8136 36.642 29.8136 36.6954 29.8268 36.7463C29.9181 37.6913 30.1955 38.6089 30.6428 39.4463C30.6758 39.4893 29.5318 41.1123 29.4278 41.2863C29.0328 41.9551 28.6743 42.6448 28.3538 43.3523C27.988 44.2218 27.6829 45.1156 27.4408 46.0273C27.1111 46.9682 26.8766 47.9397 26.7408 48.9273C26.7425 49.9245 26.8654 50.9178 27.1068 51.8853C27.1067 52.39 27.3037 52.8748 27.6558 53.2363C28.6478 53.9863 29.3858 52.6783 29.8418 52.0003C31.0736 50.3678 31.9715 48.5083 32.4838 46.5283C32.9378 44.2883 32.2988 42.0283 32.5098 39.7723C33.0151 39.4367 33.4493 39.0047 33.7876 38.5011C34.1258 37.9975 34.3613 37.4321 34.4808 36.8373C34.5492 36.5368 34.5522 36.2251 34.4895 35.9234C34.4268 35.6217 34.3 35.3369 34.1176 35.0885C33.9352 34.8401 33.7015 34.6338 33.4324 34.4837C33.1633 34.3336 32.865 34.2431 32.5578 34.2183Z" fill="#1A1818"/>
<path d="M30.9738 48.8134C30.511 50.0267 29.8275 51.1439 28.9578 52.1084C27.6858 53.1084 27.7438 51.4983 27.6508 50.6573C27.4558 49.6719 27.4399 48.6594 27.6038 47.6684C27.8195 46.7556 28.09 45.8566 28.4138 44.9763C29.0954 43.1599 30.0202 41.4443 31.1628 39.8763C31.3208 39.9449 31.4905 39.9826 31.6628 39.9874C31.7149 39.9873 31.7669 39.9847 31.8188 39.9794C31.5648 43.0654 32.4318 45.8144 30.9738 48.8134Z" fill="#FF7126"/>
<path d="M33.6358 37.2804C33.3358 38.0244 31.9568 40.3584 30.9768 38.6694C30.726 38.0506 30.568 37.3983 30.5078 36.7334C30.5249 36.7064 30.5381 36.6771 30.5468 36.6464C30.5998 36.2006 30.7999 35.7851 31.1154 35.4657C31.4308 35.1462 31.8437 34.941 32.2888 34.8824C33.6458 34.8224 34.0868 36.1744 33.6358 37.2804Z" fill="#FF7126"/>
<path d="M35.1678 30.1094C28.5478 29.4394 24.9128 36.2634 25.7978 42.0284C25.8135 42.0847 25.8434 42.1361 25.8848 42.1774C25.9262 42.2187 25.9776 42.2486 26.034 42.2642C26.0903 42.2798 26.1498 42.2806 26.2065 42.2664C26.2633 42.2523 26.3154 42.2237 26.3578 42.1834L32.1028 36.9474L35.0108 41.8024C35.037 41.8463 35.0727 41.8838 35.1154 41.9121C35.158 41.9404 35.2064 41.9588 35.257 41.9659C35.3077 41.973 35.3593 41.9687 35.4081 41.9532C35.4568 41.9377 35.5015 41.9114 35.5388 41.8764C37.6388 40.0404 40.6558 37.5134 40.5668 34.4134C40.4918 31.7924 37.4398 30.3404 35.1678 30.1094Z" fill="#1A1818"/>
<path d="M35.3858 41.1154L33.8008 38.4704C33.4938 37.9584 33.0008 36.0903 32.2008 36.1853C32.0802 36.2086 31.9666 36.2592 31.8688 36.3334C30.9557 37.0166 30.0971 37.7699 29.3008 38.5864L27.7928 39.9604C27.6048 40.1324 26.3538 41.0444 26.3738 41.2534C25.9058 36.3784 28.7018 30.8904 34.1608 30.7394C36.8608 30.6654 40.7198 32.3864 39.6928 35.7044C39.0048 37.9374 37.1058 39.6154 35.3858 41.1154Z" fill="white"/>
<path d="M31.1938 29.8664C30.5278 29.3524 29.0478 30.4194 28.5078 30.7664C27.7211 31.2909 27.0156 31.928 26.4138 32.6574C25.238 34.1228 24.2705 35.7438 23.5388 37.4744C22.9128 38.8594 22.0188 40.4434 22.4948 42.0054C23.0278 43.2452 23.9622 44.2698 25.1478 44.9144C24.7997 45.209 24.5353 45.59 24.381 46.0192C24.2267 46.4483 24.188 46.9105 24.2688 47.3594C24.5025 48.3347 24.894 49.2653 25.4278 50.1144C25.8391 50.897 26.2748 51.6664 26.7348 52.4224C27.0108 53.0912 27.3949 53.7102 27.8718 54.2544C27.8718 54.2294 27.8808 54.2044 27.8848 54.1784C28.2628 54.4184 28.6028 54.0414 28.6238 53.6604C28.5751 52.339 28.4358 51.0226 28.2068 49.7204C28.0848 48.1996 28.0458 46.6734 28.0898 45.1484C28.2059 40.9728 28.9281 36.8363 30.2338 32.8684C30.4838 32.1104 30.7541 31.359 31.0448 30.6144C31.1188 30.4274 31.4348 30.0524 31.1938 29.8664Z" fill="#1A1818"/>
<path d="M26.0128 49.7854C25.4049 48.9144 25.0187 47.9083 24.8878 46.8544C24.9388 45.3484 26.2998 44.7914 27.4458 44.4124C27.3257 47.2141 27.4741 50.0209 27.8888 52.7944L27.9078 53.0384C27.2348 51.9794 26.5978 50.8984 26.0128 49.7854Z" fill="white"/>
<path d="M27.4848 43.6953C26.8648 43.8916 26.27 44.1601 25.7128 44.4953C25.702 44.485 25.6907 44.4753 25.6788 44.4663C24.1878 43.4543 22.8078 42.4033 23.1448 40.3783C23.5121 38.931 24.0882 37.5448 24.8548 36.2633C26.0818 33.8543 27.7278 31.6633 30.3048 30.6633C28.7018 34.8369 27.7507 39.2324 27.4848 43.6953Z" fill="white"/>
<path d="M20.8038 48.5064C19.1582 47.887 17.4576 47.4252 15.7248 47.1274C15.7097 47.0856 15.6849 47.048 15.6524 47.0178C15.6199 46.9875 15.5807 46.9655 15.5379 46.9535C15.4952 46.9414 15.4502 46.9398 15.4067 46.9486C15.3632 46.9575 15.3224 46.9766 15.2878 47.0044C15.2688 47.0174 15.2538 47.0334 15.2358 47.0464C14.5951 46.949 13.9518 46.8754 13.3058 46.8254C13.259 46.7989 13.2068 46.7833 13.1532 46.7797C13.0995 46.7761 13.0458 46.7845 12.9958 46.8044C11.362 46.6926 9.72129 46.7365 8.09581 46.9354C4.92881 47.3274 1.15678 48.4904 0.25578 51.9804C-0.54422 55.0714 2.04378 57.2804 4.84178 57.7924C9.01078 58.5614 13.7418 57.7084 17.7698 56.6024C17.8116 56.592 17.8508 56.5732 17.8852 56.5473C17.9196 56.5213 17.9483 56.4886 17.9697 56.4513C17.9911 56.4139 18.0047 56.3726 18.0097 56.3298C18.0147 56.287 18.011 56.2437 17.9988 56.2024C19.69 54.0735 20.8306 51.5608 21.3198 48.8864C21.3297 48.8211 21.3216 48.7544 21.2963 48.6935C21.2711 48.6325 21.2297 48.5796 21.1766 48.5405C21.1234 48.5014 21.0606 48.4775 20.9949 48.4715C20.9292 48.4655 20.8631 48.4775 20.8038 48.5064Z" fill="#1A1818"/>
<path d="M7.6048 57.3344C5.80602 57.476 4.00754 57.0567 2.45679 56.1344C2.04365 55.8536 1.69015 55.4939 1.41666 55.0759C1.14316 54.658 0.95509 54.19 0.863252 53.699C0.771414 53.208 0.777633 52.7037 0.881562 52.2152C0.985492 51.7266 1.18505 51.2634 1.46878 50.8523C3.30978 47.8523 7.6898 47.4673 10.8548 47.4113C11.3178 47.4033 11.7798 47.4113 12.2398 47.4303C10.94 48.6767 10.174 50.3786 10.103 52.178C10.0319 53.9774 10.6613 55.7343 11.8588 57.0793C10.4475 57.2535 9.02674 57.3387 7.6048 57.3344Z" fill="white"/>
<path d="M12.6728 56.9694C12.031 56.3399 11.5309 55.5807 11.206 54.7425C10.8811 53.9043 10.7389 53.0063 10.7889 52.1087C10.8389 51.2112 11.0799 50.3346 11.4958 49.5376C11.9118 48.7406 12.493 48.0417 13.2008 47.4874C13.6528 47.5224 14.1008 47.5644 14.5518 47.6234C13.2868 48.7715 12.4816 50.3398 12.2859 52.0369C12.0902 53.734 12.5173 55.4445 13.4878 56.8504C13.2168 56.8964 12.9418 56.9304 12.6728 56.9694Z" fill="white"/>
<path d="M17.3928 55.9043C17.3644 55.9392 17.343 55.9793 17.3298 56.0223C16.2991 56.2977 15.2595 56.531 14.2108 56.7223C13.1871 55.372 12.7387 53.6717 12.9635 51.9921C13.1883 50.3125 14.068 48.79 15.4108 47.7563C17.1733 48.049 18.9031 48.5125 20.5758 49.1403C20.0685 51.6163 18.9773 53.9353 17.3928 55.9043Z" fill="#1A1818"/>
<path d="M26.8558 54.6124C27.1659 53.9309 27.2873 53.1786 27.2073 52.4341C27.1272 51.6897 26.8487 50.9804 26.4008 50.3804C24.8308 48.1124 19.9838 47.5524 19.1688 47.7924C17.8852 48.2723 16.7713 49.1197 15.9663 50.2287C15.1612 51.3377 14.7005 52.6592 14.6418 54.0284C14.575 54.5905 14.6812 55.1597 14.9461 55.6599C15.2111 56.1602 15.6222 56.5678 16.1248 56.8284C16.5018 56.9821 16.9222 56.9917 17.3058 56.8554C17.348 57.1411 17.4599 57.412 17.6317 57.6441C17.8035 57.8763 18.0299 58.0625 18.2909 58.1863C18.5518 58.3101 18.8392 58.3676 19.1277 58.3539C19.4162 58.3401 19.6968 58.2554 19.9448 58.1074C20.1742 57.9691 20.3713 57.7832 20.5228 57.5624C20.7071 57.7143 20.9215 57.8256 21.1519 57.8889C21.3823 57.9521 21.6235 57.9659 21.8596 57.9294C22.0957 57.8928 22.3214 57.8068 22.5218 57.6768C22.7223 57.5469 22.8931 57.376 23.0228 57.1754C23.2168 58.1584 24.5618 58.1754 25.3548 57.7574C25.8634 57.4762 26.2886 57.0654 26.5872 56.5668C26.8857 56.0682 27.0471 55.4995 27.0548 54.9184C27.0599 54.8526 27.0432 54.7869 27.0072 54.7316C26.9712 54.6763 26.918 54.6344 26.8558 54.6124Z" fill="#1A1818"/>
<path d="M21.8078 53.2594C22.3068 53.9279 22.6393 54.7057 22.7778 55.5284C22.8149 55.9122 22.7428 56.2987 22.5698 56.6434C22.3218 57.0794 21.3978 57.6784 20.9698 57.0514C20.9291 56.9908 20.8703 56.9446 20.8018 56.9194C20.9423 56.0209 20.8387 55.1011 20.5018 54.2564C20.3658 53.8484 19.7138 54.0154 19.8508 54.4284C20.2068 55.178 20.3029 56.025 20.1238 56.8354C20.0523 57.0942 19.8893 57.3182 19.665 57.4659C19.4407 57.6135 19.1704 57.6747 18.9045 57.638C18.6385 57.6013 18.3948 57.4693 18.2189 57.2665C18.0429 57.0637 17.9466 56.8039 17.9478 56.5354C17.9457 56.4983 17.9376 56.4618 17.9238 56.4274C18.1118 56.2173 18.2559 55.9718 18.3478 55.7054C18.4938 55.2964 17.8478 55.1134 17.7008 55.5194C16.1668 57.1194 15.2438 55.5194 15.3148 54.2654C15.3049 53.8285 15.3475 53.392 15.4418 52.9654C15.5882 52.3056 15.8423 51.6745 16.1938 51.0974C17.0027 49.7516 18.2772 48.7493 19.7758 48.2804C19.9008 48.2394 23.3508 48.5644 24.7088 49.5974C26.4228 50.8974 27.5538 53.7884 25.4158 55.2654C25.7208 53.9934 24.9968 52.7964 24.3258 51.7814C24.0878 51.4224 23.5018 51.7514 23.7408 52.1144C24.1733 52.6881 24.5067 53.3304 24.7268 54.0144C24.9618 54.9444 24.6378 56.1364 23.5138 56.1924C23.4811 56.1956 23.4491 56.2037 23.4188 56.2164C23.4717 55.032 23.1079 53.8665 22.3908 52.9224C22.1668 52.5584 21.5798 52.8894 21.8078 53.2594Z" fill="white"/>
<path d="M25.6958 56.6424C25.5038 56.855 25.276 57.0324 25.0228 57.1664C24.6228 57.3744 23.6578 57.5804 23.6748 56.8514C23.9889 56.815 24.2898 56.7047 24.553 56.5294C24.8162 56.3542 25.0341 56.1191 25.1888 55.8434C25.2093 55.8792 25.2369 55.9104 25.27 55.935C25.303 55.9597 25.3408 55.9773 25.381 55.9866C25.4212 55.996 25.4628 55.997 25.5034 55.9896C25.544 55.9821 25.5826 55.9664 25.6168 55.9434C25.8799 55.7793 26.1203 55.5812 26.3318 55.3544C26.2462 55.8353 26.0257 56.2821 25.6958 56.6424Z" fill="white"/>
<path d="M19.9058 46.3834C19.5508 45.7954 18.8208 45.8734 18.2118 45.7674C17.5181 45.6458 16.816 45.579 16.1118 45.5674C15.2953 45.4448 14.4625 45.4873 13.6628 45.6924C12.5628 46.1534 12.2248 48.5694 13.4628 48.9644C15.1517 49.5506 16.9746 49.6336 18.7098 49.2034C18.991 49.1169 19.2448 48.9585 19.446 48.7438C19.6472 48.5291 19.7888 48.2656 19.8568 47.9794C20.0572 47.5047 20.0924 46.9764 19.9568 46.4794C19.9414 46.4465 19.9244 46.4145 19.9058 46.3834Z" fill="#1A1818"/>
<path d="M18.9208 46.6054C18.1809 46.8197 17.419 46.9489 16.6498 46.9904C16.0408 47.0194 14.1708 47.1624 13.8498 46.4184C15.5354 46.137 17.2605 46.2006 18.9208 46.6054Z" fill="white"/>
<path d="M18.6228 48.5284C18.5636 48.5066 18.4992 48.5028 18.4378 48.5174C16.8013 48.924 15.0813 48.8405 13.4918 48.2774C13.3764 47.8816 13.3764 47.4611 13.4918 47.0654C13.9675 47.4253 14.5493 47.617 15.1458 47.6104C16.5278 47.7496 17.9237 47.6136 19.2528 47.2104C19.2269 47.5851 19.1523 47.9549 19.0308 48.3104C18.9043 48.3996 18.7673 48.4728 18.6228 48.5284Z" fill="white"/>
<path d="M50.4588 82.1984C49.6855 81.7921 48.8103 81.6204 47.9408 81.7044C46.5588 81.6964 45.1748 81.7414 43.7928 81.7604C43.7591 81.764 43.7257 81.7696 43.6928 81.7774C41.9038 81.6934 39.8928 81.6474 38.4578 82.8994C37.6763 83.6333 37.2015 84.6357 37.1288 85.7054C37.0974 86.0047 37.15 86.3068 37.2808 86.5778C37.4117 86.8488 37.6155 87.078 37.8694 87.2395C38.1233 87.4011 38.4172 87.4886 38.7181 87.4923C39.019 87.496 39.315 87.4157 39.5728 87.2604C40.4208 86.8954 39.7458 86.0024 40.2318 85.4124C40.6664 84.9918 41.2184 84.7129 41.8148 84.6124C42.9682 84.3818 44.1391 84.25 45.3148 84.2184C46.4157 84.0626 47.5375 84.1521 48.5998 84.4804C48.8363 84.5532 49.0547 84.6755 49.2403 84.8391C49.426 85.0027 49.5748 85.2039 49.6768 85.4294C49.8818 85.9694 49.3138 86.7544 49.7218 87.2294C49.8268 87.3168 49.9513 87.3778 50.0848 87.407C50.2183 87.4362 50.3568 87.4329 50.4888 87.3974C50.7068 87.3694 50.9238 87.3344 51.1398 87.2914C51.2795 87.275 51.4124 87.2219 51.5248 87.1374C51.7898 86.9024 51.6588 86.3514 51.6598 86.0464C51.6913 85.524 51.6963 85.0003 51.6748 84.4774C51.658 84.0302 51.5399 83.5927 51.3292 83.1979C51.1186 82.8031 50.8209 82.4613 50.4588 82.1984Z" fill="#1A1818"/>
<path d="M45.3298 83.5474C43.6638 83.6844 38.4698 83.6474 39.3408 86.5824L37.9918 86.5394C37.8046 85.8664 37.851 85.1498 38.1235 84.5065C38.3959 83.8633 38.8782 83.3313 39.4918 82.9974C40.8139 82.4404 42.2619 82.2511 43.6828 82.4494C43.7202 82.4503 43.7574 82.4445 43.7928 82.4324C45.1708 82.4134 46.5508 82.3724 47.9288 82.3774C48.3598 82.3091 48.8003 82.3302 49.2228 82.4395C49.6453 82.5487 50.0409 82.7437 50.3848 83.0124C51.3078 83.9464 51.0658 85.4414 50.8968 86.5844C50.896 86.5964 50.896 86.6084 50.8968 86.6204L50.3478 86.6774C51.0938 83.8074 47.3428 83.3824 45.3298 83.5474Z" fill="#1A1818"/>
<path d="M61.9628 106.802C61.7915 102.529 61.6198 98.2557 61.4478 93.9824C61.3258 90.9454 61.1768 87.9484 57.6618 87.2284C53.8128 86.4394 49.5118 86.6734 45.5978 86.6554C42.4552 86.6414 39.3135 86.7164 36.1728 86.8804C34.9728 86.9424 32.3788 87.0714 32.2158 87.1164C28.9568 88.0164 29.4398 91.6954 29.6448 94.3164C29.8228 96.5904 29.9888 98.8654 30.1588 101.14C30.2455 102.295 30.3355 103.45 30.4288 104.604C30.5218 105.731 30.5158 106.863 30.6068 107.987C30.7368 109.594 32.2318 109.909 33.5818 110.065C36.4075 110.319 39.2455 110.411 42.0818 110.34C47.8196 110.33 53.5509 109.957 59.2418 109.225C59.8613 109.184 60.4554 108.963 60.9508 108.589C61.4463 108.215 61.8217 107.704 62.0308 107.119C62.0545 107.066 62.0607 107.007 62.0485 106.95C62.0363 106.893 62.0063 106.841 61.9628 106.802Z" fill="#1A1818"/>
<path d="M59.2148 108.622C57.8291 108.878 56.4238 109.012 55.0148 109.022C51.5815 109.356 48.1385 109.56 44.6858 109.635C41.6191 109.696 38.5548 109.723 35.4928 109.716C34.5075 109.747 33.5238 109.617 32.5808 109.329C32.1798 109.152 31.8329 108.871 31.5755 108.516C31.318 108.161 31.1591 107.744 31.1148 107.307C30.9921 105.883 30.9533 104.453 30.9988 103.024C30.8568 101.206 30.7145 99.3887 30.5718 97.5714C30.3718 94.9964 28.9178 89.1713 31.9538 87.7793C31.9998 87.7978 32.0494 87.8053 32.0988 87.8013C39.6532 87.2419 47.2363 87.1808 54.7988 87.6184C56.9858 87.7474 59.4188 87.7764 60.3748 90.1574C61.0068 91.7324 60.7678 93.9444 60.8348 95.6034L61.2928 107.01C61.2956 107.038 61.302 107.065 61.3118 107.09C61.4508 107.596 60.1328 108.29 59.8048 108.422C59.6122 108.501 59.4152 108.567 59.2148 108.622Z" fill="white"/>
<path d="M40.1988 19.7494C37.5778 18.7984 35.4228 23.3734 38.0638 24.5904C38.7162 24.8515 39.4443 24.8508 40.0963 24.5886C40.7482 24.3263 41.2739 23.8226 41.5638 23.1824C41.717 22.87 41.8032 22.5289 41.8167 22.1812C41.8302 21.8334 41.7707 21.4867 41.6422 21.1634C41.5136 20.84 41.3187 20.5471 41.0701 20.3036C40.8215 20.0601 40.5247 19.8713 40.1988 19.7494Z" fill="#1A1818"/>
<path d="M41.0688 22.4034C40.9722 22.8851 40.711 23.3181 40.3301 23.6283C39.9491 23.9385 39.4721 24.1065 38.9808 24.1034C38.6826 24.0807 38.3961 23.9772 38.1523 23.8041C37.9084 23.6309 37.7164 23.3945 37.5968 23.1204C37.0838 21.8914 38.4068 20.0514 39.7738 20.3634C40.2103 20.4721 40.5882 20.7447 40.8292 21.1244C41.0703 21.5042 41.1561 21.9621 41.0688 22.4034Z" fill="white"/>
<path d="M22.0548 19.4154C19.3038 18.9584 18.0208 23.8494 20.8398 24.5644C21.5282 24.7009 22.2426 24.5669 22.8348 24.1904C23.427 23.8138 23.8514 23.2236 24.0198 22.5424C24.1138 22.2074 24.1366 21.8565 24.0867 21.5122C24.0369 21.1679 23.9155 20.8379 23.7304 20.5433C23.5453 20.2488 23.3006 19.9962 23.012 19.802C22.7234 19.6077 22.3974 19.476 22.0548 19.4154Z" fill="#1A1818"/>
<path d="M23.3958 21.8664C23.3882 22.3571 23.2103 22.8299 22.8925 23.2039C22.5747 23.5778 22.1368 23.8297 21.6538 23.9164C21.3564 23.9488 21.0558 23.8996 20.7842 23.7739C20.5127 23.6483 20.2806 23.4511 20.1128 23.2034C19.3848 22.0884 20.3488 20.0384 21.7498 20.0954C22.1991 20.1226 22.6208 20.3217 22.9272 20.6515C23.2337 20.9812 23.4015 21.4163 23.3958 21.8664Z" fill="white"/>
<path d="M38.0888 23.6594C38.0815 23.6283 38.0694 23.5986 38.0528 23.5714C39.9958 19.1364 41.0218 14.0854 39.2008 9.4314C37.7008 5.5844 34.3678 2.5314 30.1168 2.3104C19.0098 1.7384 19.2028 17.6184 22.1368 24.6874C23.3798 27.6804 26.7368 30.7414 29.8668 30.0144C30.5238 31.8064 29.5668 33.9614 30.6988 35.6054C31.7468 37.1334 33.7898 36.9694 35.2618 36.2394C36.7848 35.4844 38.9888 34.0214 39.3678 32.2394C39.4656 31.1147 39.3527 29.9816 39.0348 28.8984C38.7228 27.1517 38.4074 25.4054 38.0888 23.6594Z" fill="#1A1818"/>
<path d="M37.7898 33.6184C37.0698 34.3138 36.2631 34.9134 35.3898 35.4024C34.9013 35.7724 34.3203 36.0006 33.7107 36.062C33.101 36.1234 32.4862 36.0156 31.9338 35.7504C30.9128 35.1234 30.8058 34.0654 30.8078 32.9504C30.9325 31.8213 30.8218 30.6786 30.4828 29.5944C30.2078 29.0324 29.6828 29.3114 29.2058 29.3584C28.6313 29.4093 28.0523 29.3561 27.4968 29.2014C26.3024 28.8593 25.2341 28.1752 24.4238 27.2334C22.8731 25.19 21.8828 22.7771 21.5508 20.2334C20.6298 15.4014 20.5638 7.76141 24.9508 4.46541C29.2048 1.26541 35.0348 3.50741 37.6018 7.70041C40.6018 12.6004 39.6018 18.5284 37.3628 23.5004C37.3309 23.5713 37.3235 23.6508 37.3416 23.7264C37.3596 23.8021 37.4023 23.8696 37.4628 23.9184C37.8328 25.9624 38.2228 28.0044 38.5708 30.0524C38.7968 31.4104 38.8298 32.5664 37.7898 33.6184Z" fill="white"/>
<path d="M37.5998 7.69941C35.0328 3.50641 29.1998 1.26542 24.9488 4.46442C21.0978 7.36442 20.6808 13.6034 21.2598 18.3534C25.5614 17.1115 29.5286 14.918 32.8678 11.9354C32.923 13.754 33.4737 15.5229 34.4606 17.0514C35.4475 18.5798 36.8331 19.8097 38.4678 20.6084C39.8298 16.3334 40.0338 11.6744 37.5998 7.69941Z" fill="#C9D6DC"/>
<path d="M33.1898 28.4474C32.2328 28.7474 31.2818 29.0634 30.3308 29.3814C30.3948 29.4409 30.4468 29.5122 30.4838 29.5914C30.8228 30.6756 30.9335 31.8183 30.8088 32.9474C30.7571 33.3819 30.7915 33.8224 30.9101 34.2436C31.0287 34.6648 31.2291 35.0586 31.4998 35.4024C32.2536 34.803 32.875 34.054 33.3248 33.2024C33.8608 32.3024 35.6248 29.4724 34.6138 28.4934C34.2128 28.1104 33.6518 28.3034 33.1898 28.4474Z" fill="#C9D6DC"/>
<path d="M24.1678 19.9864C24.0158 19.4984 23.6958 19.0734 23.3028 19.0784C22.6028 19.0874 22.7258 20.4923 22.9028 20.8853C22.9773 21.0762 23.121 21.232 23.3052 21.3217C23.4894 21.4114 23.7006 21.4284 23.8968 21.3694C24.3818 21.1354 24.2988 20.4044 24.1678 19.9864Z" fill="#1A1818"/>
<path d="M30.8028 19.7283C30.6508 19.2403 30.3308 18.8154 29.9368 18.8214C29.2368 18.8294 29.3598 20.2354 29.5368 20.6284C29.6113 20.8192 29.755 20.975 29.9392 21.0647C30.1234 21.1544 30.3346 21.1714 30.5308 21.1124C31.0158 20.8774 30.9328 20.1473 30.8028 19.7283Z" fill="#1A1818"/>
<path d="M26.7458 22.4554C26.1588 22.3234 26.0388 21.3444 25.9528 20.8654C25.8551 20.2703 25.839 19.6647 25.9048 19.0654C25.9458 18.6334 25.2718 18.6284 25.2318 19.0574C25.1268 20.1694 25.1128 22.7764 26.5598 23.1014C26.9808 23.1974 27.1688 22.5494 26.7458 22.4554Z" fill="#1A1818"/>
<path d="M31.1168 22.3203C30.3931 23.0416 29.4512 23.5032 28.4378 23.6334C28.0108 23.6924 28.1848 24.3434 28.6098 24.2844C29.7377 24.1275 30.7834 23.6064 31.5878 22.8004C31.8958 22.4964 31.4258 22.0143 31.1168 22.3203Z" fill="#1A1818"/>
<path d="M41.5388 11.5234C41.3588 9.55641 40.7038 5.4094 37.9088 5.6954C34.9088 6.0014 34.2808 10.5574 34.4448 12.8664C34.5594 14.4311 35.033 15.9483 35.8288 17.3004C36.2264 17.976 36.6958 18.6066 37.2288 19.1814C37.6228 19.6064 38.0848 19.9594 38.4898 20.3714C38.6758 20.5604 39.1178 21.0784 39.3588 20.6804C41.0475 17.9404 41.8117 14.7304 41.5388 11.5234Z" fill="#1A1818"/>
<path d="M39.0228 19.9164C37.1718 18.5262 35.8634 16.5343 35.3228 14.2834C34.8528 12.2274 35.1588 5.33639 38.6418 6.68339C40.8528 7.53939 40.9998 11.4364 40.9058 13.4914C40.7963 15.7521 40.1509 17.9543 39.0228 19.9164Z" fill="#1A1818"/>
<path d="M32.4738 1.11238C27.8928 0.0313785 22.5968 2.69738 20.1368 6.55438C18.8081 8.6423 18.2134 11.1136 18.4468 13.5774C18.5788 14.8994 18.9098 17.6284 20.7648 17.4674C21.9286 17.2091 23.0478 16.7798 24.0858 16.1934C25.4858 15.5754 26.8525 14.8904 28.1858 14.1384C30.704 12.7075 33.0901 11.0557 35.3158 9.20237C35.3619 9.16923 35.3964 9.12241 35.4143 9.06855C35.4323 9.0147 35.4328 8.95654 35.4158 8.90237C38.6348 6.45637 35.8968 1.92038 32.4738 1.11238Z" fill="#1A1818"/>
<path d="M25.3128 14.8854C24.3081 15.374 23.2865 15.826 22.2478 16.2414C21.9932 16.3976 21.7104 16.502 21.4154 16.5487C21.1204 16.5953 20.8191 16.5834 20.5288 16.5134C19.6658 16.2624 19.6378 15.9254 19.3958 15.0564C18.8875 13.1328 18.9619 11.1016 19.6098 9.22039C20.2618 7.42456 21.3504 5.81921 22.7776 4.54902C24.2047 3.27883 25.9255 2.38372 27.7848 1.94438C29.8378 1.42438 32.2628 1.32438 34.1188 2.50538C36.3068 3.89838 37.0998 7.22138 34.5188 8.69538C34.4496 8.73232 34.397 8.79422 34.3718 8.8685C34.3465 8.94279 34.3504 9.0239 34.3828 9.09539C31.5885 11.3627 28.5457 13.3052 25.3128 14.8854Z" fill="#1A1818"/>
<path d="M53.4478 42.9394C53.1002 40.0804 51.674 37.4621 49.4608 35.6194C48.8611 35.1233 48.1687 34.7518 47.4238 34.5264C46.7457 34.4629 46.066 34.6291 45.4938 34.9984C42.7838 37.0324 42.4828 40.8484 42.1648 44.0224C41.8936 46.6985 41.8357 49.392 41.9918 52.0774C42.1398 54.5714 42.6178 57.0284 42.8188 59.5154C42.967 61.9469 42.9539 64.3856 42.7798 66.8154C42.6925 68.5087 42.5495 70.198 42.3508 71.8834C42.2495 72.75 42.1335 73.6127 42.0028 74.4714C41.9298 74.9514 41.9398 75.4424 41.8788 75.9244C41.8228 76.3634 41.0248 77.5164 41.8788 77.6314C41.8308 77.8604 41.7028 78.0744 41.6698 78.3174C40.9311 78.3266 40.2153 78.5753 39.63 79.0261C39.0446 79.4769 38.6214 80.1055 38.4238 80.8174C38.3137 81.1072 38.2749 81.4193 38.3106 81.7274C38.3463 82.0354 38.4554 82.3303 38.6288 82.5874C38.8071 82.7596 39.0228 82.8884 39.259 82.9637C39.4953 83.039 39.7457 83.0587 39.9908 83.0214C39.6148 84.0114 39.3538 85.1974 40.2248 86.0054C40.4653 86.2347 40.7805 86.3696 41.1124 86.3853C41.4444 86.4009 41.7709 86.2961 42.0318 86.0904C42.1224 86.3967 42.31 86.6653 42.5665 86.8558C42.823 87.0462 43.1344 87.1482 43.4538 87.1464C43.8108 87.143 44.1595 87.0392 44.4602 86.8468C44.7609 86.6543 45.0013 86.3811 45.1538 86.0584C45.2809 86.2837 45.4664 86.4705 45.6908 86.5992C45.9152 86.7279 46.1702 86.7936 46.4288 86.7894C46.7351 86.7809 47.034 86.6936 47.2968 86.536C47.5595 86.3783 47.7772 86.1556 47.9288 85.8894C48.5708 86.5764 49.5848 86.0274 50.0598 85.2994C51.0094 83.6268 51.3504 81.677 51.0248 79.7814C51.0216 79.7701 51.0176 79.7591 51.0128 79.7484C51.1109 79.611 51.1803 79.4553 51.2169 79.2905C51.2535 79.1258 51.2565 78.9553 51.2258 78.7894C51.3578 78.7574 51.4898 78.7264 51.6258 78.6894C51.6718 78.6781 51.7142 78.6555 51.7493 78.6238C51.7845 78.592 51.8111 78.5521 51.827 78.5075C51.8428 78.4629 51.8474 78.415 51.8402 78.3682C51.833 78.3214 51.8143 78.2771 51.7858 78.2394C52.3985 69.3787 53.0108 60.518 53.6228 51.6574C53.9111 48.7547 53.8523 45.8281 53.4478 42.9394Z" fill="#1A1818"/>
<path d="M50.2958 82.7584C50.1915 83.2912 50.0282 83.8107 49.8088 84.3074C49.6708 84.6134 48.8758 86.2864 48.2778 85.2314C48.2668 85.2125 48.2541 85.1948 48.2398 85.1784C48.2704 85.0686 48.2945 84.957 48.3118 84.8444C48.3212 84.7583 48.2971 84.6719 48.2446 84.603C48.192 84.5342 48.1149 84.4883 48.0294 84.4748C47.9438 84.4613 47.8563 84.4812 47.7851 84.5305C47.7139 84.5798 47.6644 84.6546 47.6468 84.7394C47.6322 85.0273 47.5363 85.3052 47.37 85.5408C47.2038 85.7764 46.9742 85.9601 46.7078 86.0704C46.5813 86.1216 46.4433 86.1377 46.3084 86.117C46.1735 86.0962 46.0468 86.0394 45.9415 85.9525C45.8363 85.8656 45.7565 85.7519 45.7106 85.6233C45.6647 85.4948 45.6544 85.3563 45.6808 85.2224C45.6919 85.1715 45.6901 85.1186 45.6754 85.0687C45.6608 85.0187 45.6338 84.9733 45.5969 84.9365C45.56 84.8997 45.5145 84.8728 45.4645 84.8583C45.4145 84.8438 45.3616 84.8421 45.3108 84.8534C45.2646 84.8217 45.2112 84.8022 45.1555 84.7966C45.0998 84.7909 45.0436 84.7993 44.9919 84.821C44.9403 84.8427 44.8949 84.877 44.86 84.9207C44.825 84.9644 44.8016 85.0162 44.7918 85.0714C44.7693 85.3576 44.6705 85.6326 44.5058 85.8677C44.341 86.1029 44.1162 86.2896 43.8548 86.4084C43.2618 86.6184 42.4318 86.2084 42.6688 85.4814C42.6855 85.4263 42.6891 85.368 42.6792 85.3112C42.6694 85.2545 42.6464 85.2008 42.612 85.1546C42.5777 85.1083 42.5331 85.0707 42.4816 85.0448C42.4302 85.0189 42.3734 85.0054 42.3158 85.0054C42.2789 84.9798 42.2366 84.9633 42.1921 84.9573C42.1476 84.9512 42.1024 84.9558 42.06 84.9707C42.0177 84.9855 41.9795 85.0101 41.9485 85.0426C41.9175 85.075 41.8946 85.1144 41.8818 85.1574C41.5958 85.9974 40.6818 85.7834 40.3988 85.0794C40.2381 84.3663 40.3566 83.6188 40.7298 82.9903C40.7454 82.8481 40.7131 82.7048 40.6381 82.5829C40.5632 82.461 40.4498 82.3676 40.3158 82.3174C40.1627 82.3402 40.0085 82.3545 39.8538 82.3604C39.631 82.3304 39.4246 82.2266 39.2677 82.0657C39.1107 81.9047 39.0122 81.6959 38.9878 81.4724C39.0035 80.995 39.1709 80.5351 39.4658 80.1594C39.7267 79.7899 40.0741 79.4899 40.4776 79.2856C40.8812 79.0813 41.3286 78.9789 41.7808 78.9874C42.3468 80.0984 44.7478 80.4594 45.8018 80.5414C46.7408 80.6134 49.1118 80.8504 50.3918 80.2414C50.4868 81.0804 50.4544 81.929 50.2958 82.7584Z" fill="white"/>
<path d="M46.2078 79.8944C45.5278 79.8544 41.5258 79.5864 42.5178 77.9614C45.0305 79.133 47.8511 79.4742 50.5708 78.9354C50.6218 80.1714 46.6048 79.9184 46.2078 79.8944Z" fill="white"/>
<path d="M53.0438 50.6884C52.9508 52.0754 52.8208 53.4594 52.7258 54.8464L51.1158 78.1314C48.1332 78.8938 44.9737 78.5195 42.2518 77.0814C42.3633 76.0872 42.5265 75.0995 42.7408 74.1224C42.8975 73.0484 43.0328 71.971 43.1468 70.8904C43.3681 68.775 43.5031 66.653 43.5518 64.5244C43.6185 61.9835 43.5554 59.4408 43.3628 56.9064C43.2148 55.0464 42.8628 53.2064 42.6738 51.3544C42.5277 49.5478 42.5317 47.7323 42.6858 45.9264C42.9058 42.4174 42.9708 37.2504 46.3698 35.2174C46.3818 35.2104 46.3858 35.2014 46.3958 35.1934C46.6279 35.1324 46.8694 35.1154 47.1078 35.1434C47.6368 35.2519 48.131 35.4889 48.5468 35.8334C49.0025 36.1271 49.4369 36.4526 49.8468 36.8074C50.527 37.4569 51.1007 38.2094 51.5468 39.0374C52.4218 40.7699 52.9371 42.6615 53.0618 44.5984C53.217 46.6256 53.211 48.662 53.0438 50.6884Z" fill="white"/>
<path d="M42.3188 33.8034C42.2816 33.0976 42.097 32.4074 41.7768 31.7774C41.6149 31.481 41.4085 31.2112 41.1648 30.9774C41.0208 30.8404 40.3478 30.5064 40.3428 30.3284C40.1968 30.2487 40.03 30.2155 39.8646 30.2334C39.6993 30.2513 39.5433 30.3193 39.4178 30.4284C39.2507 30.6003 39.1204 30.8045 39.0348 31.0284C38.6425 31.8154 38.2009 32.5769 37.7128 33.3084C37.0461 34.4157 36.3944 35.5327 35.7578 36.6594C34.4911 38.9114 33.2911 41.1997 32.1578 43.5244C30.9491 46.0037 29.8218 48.5207 28.7758 51.0754C28.4048 51.9754 28.0618 52.8754 27.7508 53.8004C27.6748 54.0284 27.8408 54.1004 27.9718 54.2414C28.0468 54.3234 28.4658 54.1354 28.5448 54.0974C28.7071 54.013 28.8606 53.9125 29.0028 53.7974C29.3278 53.5444 29.6108 53.2404 29.9438 52.9974C30.8351 52.3467 31.7255 51.6954 32.6148 51.0434C33.641 50.4568 34.4978 49.6144 35.1018 48.5984C35.2709 48.2427 35.3502 47.8509 35.3328 47.4574C35.3153 47.064 35.2017 46.6807 35.0018 46.3414C36.4768 45.4684 38.3128 45.8464 39.8108 44.9984C41.3638 44.1194 41.6318 42.2204 41.8978 40.6174C42.3135 38.3715 42.4549 36.0834 42.3188 33.8034Z" fill="#1A1818"/>
<path d="M32.5478 50.2584C31.2758 51.2104 29.9858 52.1404 28.7018 53.0744C28.7351 52.9744 28.7685 52.8744 28.8018 52.7744C29.8751 50.071 31.0371 47.4087 32.2878 44.7874C32.7578 45.057 33.2119 45.3535 33.6478 45.6754C34.0953 46.0288 34.412 46.5215 34.5478 47.0754C34.8108 48.5164 33.5648 49.4984 32.5478 50.2584Z" fill="white"/>
<path d="M41.6308 36.8414C41.5787 38.6214 41.3387 40.3909 40.9148 42.1204C39.9628 45.6204 36.9478 44.2944 34.6148 45.7834C34.0307 45.1396 33.3424 44.5987 32.5788 44.1834C34.7764 39.6439 37.2369 35.2364 39.9478 30.9834C42.1698 31.7564 41.7308 34.9974 41.6308 36.8414Z" fill="white"/>
</svg>
