<svg width="121" height="140" viewBox="0 0 121 140" fill="none" xmlns="http://www.w3.org/2000/svg">
<path d="M99.8334 107.287C95.9914 96.8323 86.5734 91.1283 76.7834 87.0563C71.6584 84.9243 66.4374 82.8913 61.7364 79.8973C60.2899 78.986 58.9155 77.965 57.6254 76.8433C54.0857 73.8165 51.2858 70.0195 49.4404 65.7433C48.5219 63.3155 47.1001 61.1096 45.2684 59.2703C41.5302 55.633 36.5799 53.5051 31.3684 53.2953C22.7254 52.9483 14.6574 58.0063 9.53137 64.6813C3.26137 72.8473 1.15237 83.4573 0.881373 93.5443C0.606373 103.787 2.39437 114.407 8.13937 123.079C13.6974 131.467 21.9634 136.116 31.7394 137.921C43.5127 139.947 55.5038 140.389 67.3944 139.238C76.4474 138.452 86.8564 137.419 94.1184 131.36C101.081 125.557 102.889 115.605 99.8334 107.287Z" fill="#1A1818"/>
<path d="M79.2384 136.855C68.584 138.842 57.7228 139.486 46.9084 138.772C36.8484 138.234 25.5634 137.403 17.1004 131.356C9.17436 125.694 4.52237 116.565 2.70037 107.167C0.737773 97.0159 1.29575 86.538 4.32537 76.6524C7.49637 66.7454 14.6674 57.5774 25.0884 54.8234C29.6967 53.6357 34.5704 54.0294 38.9284 55.9414C41.1106 56.8459 43.0903 58.177 44.7515 59.8565C46.4127 61.5361 47.7219 63.5303 48.6024 65.7224C49.5066 68.0759 50.7534 70.283 52.3024 72.2724C53.7553 74.2958 55.426 76.1536 57.2844 77.8124C60.8075 80.6406 64.7193 82.9472 68.8994 84.6613C73.1624 86.5683 77.5394 88.2194 81.7504 90.2444C85.1086 91.7615 88.2407 93.7362 91.0574 96.1124C98.1104 102.366 102.339 111.943 99.6724 121.331C96.9894 130.775 88.1884 135.05 79.2384 136.855Z" fill="white"/>
<path d="M91.0574 96.1163C88.2407 93.7402 85.1087 91.7654 81.7504 90.2483C77.5394 88.2233 73.1634 86.5723 68.8994 84.6653C64.7186 82.9498 60.8065 80.6414 57.2834 77.8113C55.4248 76.1513 53.7541 74.2921 52.3014 72.2673C50.7524 70.278 49.5057 68.0708 48.6014 65.7173C48.4381 65.272 48.2525 64.8351 48.0454 64.4083C46.3229 63.1355 44.3688 62.2105 42.2924 61.6853C40.8871 61.1036 39.3513 60.9099 37.8455 61.1245C36.3397 61.3391 34.9192 61.9541 33.7324 62.9053C30.3324 65.4373 28.9124 69.6233 28.0764 73.6123C26.1824 82.6413 26.4954 92.0763 31.3514 100.146C33.5665 103.815 36.5283 106.977 40.0445 109.427C43.5606 111.877 47.5526 113.56 51.7614 114.367C56.6795 115.183 61.7137 114.959 66.5404 113.712C69.7994 112.969 73.0264 112.051 76.2984 111.436C76.3232 111.45 76.3498 111.461 76.3774 111.468C78.2909 111.809 80.0773 112.659 81.5489 113.929C83.0206 115.199 84.1232 116.841 84.7411 118.684C85.3589 120.527 85.4692 122.502 85.0604 124.402C84.6515 126.303 83.7385 128.058 82.4174 129.483C77.0914 135.345 68.2684 135.548 60.9284 135.739C52.4695 135.875 44.0148 135.277 35.6594 133.951C35.6277 133.892 35.581 133.843 35.5239 133.807C35.4668 133.772 35.4014 133.753 35.3344 133.751C34.723 133.722 34.114 133.681 33.5074 133.629C30.6514 133.181 27.8004 132.682 24.9524 132.157C20.3798 130.957 15.9981 129.121 11.9354 126.703C13.4779 128.443 15.2096 130.006 17.0984 131.362C25.5614 137.408 36.8454 138.24 46.9064 138.778C57.7215 139.492 68.5834 138.848 79.2384 136.861C88.1874 135.055 96.9894 130.78 99.6714 121.341C102.339 111.947 98.1104 102.367 91.0574 96.1163Z" fill="#C9D6DC"/>
<path d="M91.0304 48.0504C91.0315 47.6281 90.9372 47.211 90.7544 46.8304C90.5644 46.4277 90.2483 46.098 89.854 45.8913C89.4596 45.6847 89.0086 45.6124 88.5694 45.6854C88.4616 45.2816 88.2671 44.9062 87.9994 44.5854C87.7869 44.3271 87.5011 44.1395 87.1797 44.0472C86.8583 43.9548 86.5165 43.9622 86.1994 44.0684C87.0414 41.7554 87.6634 38.8214 85.7284 38.2384C84.6064 37.9004 83.8284 38.9544 83.4674 39.8494C82.6204 41.9324 82.0674 44.1914 81.3844 46.3334C81.357 46.4159 81.3609 46.5056 81.3954 46.5854C80.7484 46.9841 80.226 47.556 79.8874 48.2364C79.5518 48.9988 79.3986 49.829 79.4399 50.661C79.4812 51.493 79.7159 52.3039 80.1254 53.0294C77.8254 58.1064 74.6254 63.0174 69.5134 65.6114C64.3454 68.2334 57.6404 67.6574 54.1054 62.6764C54.0614 62.6134 54.0008 62.5639 53.9304 62.5334C53.8961 62.4718 53.8464 62.4202 53.7863 62.3835C53.7262 62.3467 53.6576 62.3262 53.5871 62.3238C53.5167 62.3213 53.4469 62.3372 53.3844 62.3697C53.3219 62.4022 53.2688 62.4503 53.2304 62.5094C50.4184 67.0244 48.8454 72.6174 51.1904 77.6854C53.5034 82.6854 58.9484 84.3624 64.1084 84.1664C69.5469 83.915 74.7163 81.7277 78.6836 77.9992C82.6508 74.2708 85.1544 69.2468 85.7424 63.8344L86.8334 58.7924C86.8755 58.2932 87.0168 57.8075 87.249 57.3637C87.4811 56.9198 87.7995 56.5267 88.1854 56.2074C88.8435 55.7027 89.4469 55.1302 89.9854 54.4994C89.9914 54.4924 89.9944 54.4854 89.9994 54.4784C90.4354 54.3161 90.8328 54.0648 91.1664 53.7404C92.6434 52.3084 93.6904 48.7644 91.0304 48.0504Z" fill="#1A1818"/>
<path d="M88.4224 48.6934C88.663 47.9812 88.7602 47.2283 88.7084 46.4784C90.4574 46.0434 90.2614 48.6994 89.9004 49.7194C89.7038 50.419 89.2758 51.0313 88.6864 51.4564C88.5311 51.5756 88.3518 51.6595 88.1608 51.7023C87.9697 51.7451 87.7717 51.7457 87.5805 51.7041C87.3892 51.6625 87.2093 51.5797 87.0533 51.4614C86.8974 51.3431 86.7691 51.1923 86.6774 51.0194C87.5205 50.4799 88.1402 49.6538 88.4224 48.6934Z" fill="white"/>
<path d="M87.8434 46.1944C87.952 46.8194 87.9257 47.4603 87.7664 48.0744C87.6404 48.589 87.4222 49.0766 87.1224 49.5134L86.7494 49.9624C86.2644 50.5204 85.7124 50.4874 85.0934 49.8784C85.3843 49.7923 85.6405 49.616 85.8248 49.375C86.0092 49.134 86.1124 48.8407 86.1194 48.5373C86.1337 48.1593 86.0448 47.7845 85.8623 47.4531C85.6798 47.1218 85.4105 46.8463 85.0834 46.6564V46.6504C85.2374 46.3414 85.4744 45.8444 85.7294 45.2434C85.795 45.2672 85.8667 45.2683 85.9331 45.2466C85.9994 45.2248 86.0566 45.1814 86.0954 45.1234C87.1224 43.8134 87.7484 45.7364 87.8434 46.1944Z" fill="white"/>
<path d="M83.2114 43.2624C83.5034 42.3484 83.8634 40.9884 84.2404 40.1214C84.6004 39.2934 85.7864 38.7694 86.0924 40.3604C86.0998 40.505 86.0877 40.65 86.0564 40.7914C86.0226 41.4775 85.8992 42.1562 85.6894 42.8104C85.3837 43.9987 84.9478 45.1497 84.3894 46.2424C84.3814 46.2594 84.3824 46.2734 84.3764 46.2894C84.144 46.1993 83.9021 46.1359 83.6554 46.1004C83.1905 46.0369 82.7174 46.0709 82.2664 46.2004L83.2114 43.2624Z" fill="white"/>
<path d="M52.3084 78.1053C49.6084 73.3483 51.0084 67.8163 53.6384 63.3843C54.975 65.0785 56.7389 66.3861 58.7484 67.1726C60.758 67.9591 62.9408 68.1961 65.0724 67.8593L65.6664 83.1153C65.6698 83.158 65.68 83.1998 65.6964 83.2393C65.6034 83.2493 65.5114 83.2643 65.4174 83.2733C60.5444 83.7583 54.9204 82.7043 52.3084 78.1053Z" fill="white"/>
<path d="M88.2014 55.1763C87.8194 55.4833 87.0204 55.7343 86.7254 56.0903C85.4754 57.6033 85.5114 61.3063 85.1384 63.1563C84.0664 68.4793 82.4054 73.2243 78.4724 77.1093C75.2075 80.3337 71.0078 82.4447 66.4724 83.1413C66.4724 83.1323 66.4724 83.1263 66.4724 83.1173C66.2724 77.984 66.0724 72.8533 65.8724 67.7253C66.611 67.5839 67.337 67.3832 68.0434 67.1253C74.3324 64.8253 78.2604 59.1403 80.8974 53.2643C80.9266 53.2003 80.9386 53.1297 80.9323 53.0596C80.926 52.9894 80.9015 52.9222 80.8614 52.8643C80.871 52.7881 80.8585 52.7107 80.8254 52.6413C80.0254 51.0083 79.9094 48.9323 81.3494 47.6013C81.6862 47.2907 82.0957 47.0697 82.5402 46.9586C82.9847 46.8474 83.45 46.8498 83.8934 46.9653C84.5214 47.1403 86.3624 48.2753 84.5934 49.2173C84.1554 49.4503 83.2284 49.1033 82.7934 48.9663C82.2934 48.8083 82.0854 49.5863 82.5784 49.7433C83.0883 49.907 83.619 49.9966 84.1544 50.0093C84.2425 50.3917 84.4675 50.7287 84.7869 50.9567C85.1063 51.1848 85.4981 51.2881 85.8884 51.2473C86.0025 51.5575 86.1927 51.834 86.4415 52.0515C86.6903 52.269 86.9898 52.4206 87.3124 52.4923C87.2133 52.8906 87.2618 53.3113 87.4487 53.6767C87.6356 54.0421 87.9484 54.3276 88.3294 54.4803C88.4844 54.5434 88.6466 54.5874 88.8124 54.6113C88.6202 54.8118 88.4162 55.0004 88.2014 55.1763Z" fill="white"/>
<path d="M91.3604 52.1874C91.0717 52.713 90.6675 53.1664 90.1784 53.5134C89.5004 53.9494 87.4974 53.9724 88.1374 52.5134C88.6813 52.3827 89.1838 52.1177 89.5989 51.7426C90.014 51.3675 90.3284 50.8943 90.5134 50.3664C90.7176 49.8946 90.8675 49.4011 90.9604 48.8954C92.2504 49.4204 91.9834 51.1364 91.3604 52.1874Z" fill="white"/>
<path d="M64.8324 100.742C64.0035 98.5205 63.0128 96.3623 61.8684 94.2853C60.3508 91.0638 59.4583 87.5836 59.2384 84.0293C58.7544 78.1293 59.1724 71.8893 56.5444 66.4093C55.5894 64.4073 54.1646 62.6659 52.3914 61.3333C49.7121 59.4265 46.6137 58.1919 43.3574 57.7333C42.3695 57.5827 41.362 57.6231 40.3894 57.8523C38.3967 58.3362 36.6102 59.4428 35.2894 61.0113C32.1954 64.6493 31.3244 69.8493 30.7634 74.4393C29.4634 85.0393 31.1134 97.0543 36.5634 106.379C37.6333 108.366 39.16 110.071 41.0177 111.352C42.8754 112.634 45.0109 113.456 47.2484 113.75C51.7484 114.395 57.2914 114.48 61.2724 111.977C65.2534 109.474 66.2024 105.086 64.8324 100.742Z" fill="#1A1818"/>
<path d="M63.9364 108.025C61.6464 112.637 55.8574 113.296 51.3034 113.225C46.5854 113.154 42.0714 112.225 38.9374 108.425C36.0634 104.935 34.4514 100.284 33.2374 95.9943C31.9417 91.4226 31.2475 86.7015 31.1724 81.9503C31.0033 76.825 31.6666 71.7062 33.1364 66.7933C34.3724 62.9563 37.7884 57.9333 42.3954 58.3353C43.8154 58.4975 45.2078 58.8465 46.5364 59.3733C47.8118 59.7922 49.0602 60.2895 50.2744 60.8623C57.6384 64.6623 57.8854 73.8853 58.2464 81.0793C58.4584 85.3083 58.8464 89.5123 60.5744 93.4303C62.5284 97.8483 66.4114 103.035 63.9364 108.025Z" fill="white"/>
<path d="M113.573 121.581C110.895 120.556 108.007 120.197 105.159 120.537C102.311 120.877 99.5883 121.905 97.2264 123.532C97.1792 123.564 97.1391 123.606 97.1085 123.654C97.078 123.702 97.0577 123.756 97.0488 123.812C97.04 123.868 97.0429 123.926 97.0573 123.981C97.0716 124.036 97.0972 124.088 97.1324 124.132C95.8034 126.001 94.4054 128.341 95.4644 130.66C96.3204 132.536 98.3234 132.86 100.186 132.816C103.473 132.673 106.746 132.298 109.979 131.693C112.661 131.237 116.222 130.978 118.614 129.572C123.322 126.808 115.884 122.487 113.573 121.581Z" fill="#1A1818"/>
<path d="M118.762 128.482C118.439 129.019 117.276 129.282 116.775 129.434C112.53 130.596 108.187 131.363 103.8 131.725C102.017 131.905 99.8264 132.355 98.0624 131.848C94.0624 130.699 96.5454 126.316 98.0174 124.277C98.0541 124.232 98.0781 124.178 98.0869 124.12C98.0957 124.062 98.089 124.004 98.0674 123.949C100.651 122.241 103.661 121.288 106.758 121.199C109.854 121.11 112.914 121.887 115.592 123.443C116.514 123.896 117.353 124.499 118.077 125.226C118.54 125.791 119.15 127.838 118.762 128.482Z" fill="white"/>
<path d="M95.5434 89.5424C83.6134 83.5764 70.2214 88.7134 58.8434 93.3864C58.7635 93.4199 58.6957 93.4768 58.6488 93.5496C58.6019 93.6224 58.5781 93.7077 58.5806 93.7942C58.5831 93.8808 58.6117 93.9646 58.6627 94.0346C58.7137 94.1046 58.7847 94.1575 58.8664 94.1863C58.0264 97.5063 60.1554 100.655 63.1744 102.027C67.7664 104.113 72.8744 102.479 77.6744 102.927C88.8344 103.965 94.7244 114.879 98.0744 124.309C98.0113 124.362 97.9657 124.432 97.944 124.511C97.9222 124.59 97.9252 124.674 97.9525 124.751C97.9799 124.828 98.0304 124.895 98.097 124.943C98.1637 124.99 98.2434 125.016 98.3254 125.017C102.354 124.992 106.3 123.868 109.737 121.766C109.745 121.766 109.749 121.754 109.756 121.748C109.794 121.726 109.826 121.696 109.851 121.66C109.858 121.652 109.865 121.643 109.87 121.634C109.887 121.605 109.9 121.574 109.908 121.541C109.916 121.517 109.92 121.492 109.922 121.467C109.922 121.452 109.93 121.442 109.93 121.426C109.721 109.552 107.321 95.4324 95.5434 89.5424Z" fill="#1A1818"/>
<path d="M98.8874 124.191C96.0594 116.172 91.9664 107.852 83.9704 103.921C79.8894 101.915 75.8404 102.021 71.4054 102.249C68.9143 102.524 66.3933 102.273 64.0054 101.512C61.0204 100.362 58.7054 97.3854 59.7174 94.1024C59.7377 94.0338 59.7377 93.9609 59.7174 93.8924C70.5424 89.4584 83.1484 84.6714 94.5394 89.9554C106.439 95.4744 108.878 109.417 109.114 121.199C106.016 123.051 102.496 124.081 98.8874 124.191Z" fill="#FF7126"/>
<path d="M105.538 126.123C102.86 125.098 99.9718 124.739 97.1238 125.079C94.2757 125.419 91.5532 126.447 89.1914 128.074C89.1443 128.106 89.1043 128.148 89.0738 128.196C89.0434 128.244 89.0231 128.298 89.0143 128.354C89.0055 128.41 89.0083 128.468 89.0226 128.523C89.0369 128.578 89.0623 128.629 89.0974 128.674C87.7694 130.543 86.3714 132.883 87.4304 135.202C88.2864 137.078 90.2894 137.402 92.1514 137.358C95.438 137.215 98.7105 136.839 101.944 136.235C104.627 135.779 108.188 135.52 110.579 134.114C115.287 131.351 107.849 127.029 105.538 126.123Z" fill="#1A1818"/>
<path d="M110.728 133.024C110.405 133.561 109.242 133.824 108.741 133.976C104.496 135.138 100.153 135.905 95.7664 136.267C93.9834 136.447 91.7924 136.897 90.0274 136.389C86.0274 135.24 88.5104 130.857 89.9824 128.818C90.0191 128.773 90.0431 128.719 90.0519 128.661C90.0607 128.603 90.054 128.545 90.0324 128.49C92.6164 126.782 95.6263 125.829 98.7228 125.74C101.819 125.65 104.879 126.428 107.557 127.984C108.479 128.437 109.318 129.04 110.042 129.767C110.506 130.336 111.118 132.38 110.728 133.024Z" fill="white"/>
<path d="M103.614 125.073C103.794 123.555 103.075 121.673 102.901 120.233C102.627 117.968 102.336 115.704 101.933 113.458C101.246 108.995 99.7813 104.688 97.6064 100.73C95.7536 97.4442 93.1062 94.6754 89.9064 92.6773C81.0494 87.1723 70.8574 89.6083 61.7064 93.4173C61.3664 92.9593 60.4334 91.1603 59.7874 91.1523C59.6715 91.1579 59.5581 91.1876 59.4544 91.2393C55.3814 92.9603 51.5134 95.1053 47.3754 96.7183C45.0107 97.6396 42.618 98.4847 40.1974 99.2533C38.9874 99.6373 37.7717 100.002 36.5504 100.347C35.93 100.481 35.3171 100.648 34.7144 100.847C33.9234 101.167 34.3244 102.192 34.5144 102.783C35.1758 105.119 36.3129 107.294 37.8545 109.169C39.396 111.045 41.3087 112.582 43.4724 113.683C48.9024 116.333 55.2074 116.276 60.9884 114.961C64.3085 114.153 67.5593 113.083 70.7104 111.761C73.8474 110.5 77.7964 108.626 80.9844 110.733C83.8354 112.617 84.9904 117.058 85.8944 120.123C86.5063 122.207 86.9705 124.331 87.2834 126.479C87.4487 127.613 87.5747 128.749 87.6614 129.887C87.7444 130.972 87.5614 131.787 88.9084 131.879C90.6021 131.885 92.2855 131.615 93.8924 131.079C95.6902 130.592 97.4195 129.88 99.0394 128.96C99.8718 128.489 100.673 127.966 101.439 127.393C102.064 126.926 103.259 126.435 103.505 125.628C103.558 125.447 103.594 125.261 103.614 125.073Z" fill="#1A1818"/>
<path d="M83.8844 112.861C80.5324 107.129 74.8564 109.254 69.8154 111.254C63.0644 113.931 55.6554 116.112 48.3644 114.515C41.8644 113.09 36.1534 108.385 35.1984 101.547C43.6794 99.2762 51.8843 96.0773 59.6644 92.0083L60.9474 93.7373C58.5764 94.7493 56.2794 95.8373 54.1014 96.8983C53.6344 97.1243 54.0434 97.8203 54.5084 97.5983C65.0004 92.5053 78.3554 86.4473 89.5024 93.3773C100.154 99.9993 101.647 113.777 102.636 125.09C102.643 125.16 102.667 125.227 102.707 125.284C98.8545 128.882 93.8099 130.933 88.5394 131.043C88.2184 124.94 86.9964 118.181 83.8844 112.861Z" fill="#FF7126"/>
<path d="M93.4024 90.4733C93.8043 90.5225 94.212 90.4621 94.5824 90.2984C94.9622 89.9518 95.2082 89.4828 95.2774 88.9733C95.3874 88.4183 95.4164 87.5373 94.7294 87.4433C93.3709 87.3294 92.0074 87.285 90.6444 87.3103C87.7774 87.2223 84.9084 87.1683 82.0444 87.1103C80.955 87.0863 79.8657 87.0603 78.7764 87.0323L71.1334 86.8323L67.2724 86.7323L65.3814 86.6824C64.9744 86.6714 64.0934 86.4823 63.7374 86.7233C63.4944 86.9066 63.3224 87.1682 63.2506 87.4639C63.1788 87.7596 63.2116 88.0711 63.3434 88.3453C63.5002 88.9218 63.8438 89.43 64.3204 89.7903C64.9704 90.2003 65.8094 89.9443 66.5274 89.9583L69.4774 90.0143L75.3774 90.1253L87.1774 90.3473L90.4774 90.4093C91.2094 90.4233 91.9404 90.4403 92.6724 90.4473C92.8854 90.4383 93.1414 90.4623 93.4024 90.4733Z" fill="#1A1818"/>
<path d="M78.2424 89.3623C75.8124 89.3163 73.3814 89.2623 70.9514 89.2163C69.7234 89.1923 68.495 89.1703 67.2664 89.1503L65.4664 89.1243C65.2306 89.1537 64.9914 89.1136 64.7782 89.0087C64.565 88.9039 64.387 88.739 64.2664 88.5343C64.1393 88.2859 64.0667 88.0131 64.0534 87.7343C64.0824 87.1563 66.3924 87.5073 66.7914 87.5183L70.7274 87.6234L78.5994 87.8333C81.288 87.9053 83.9764 87.9793 86.6644 88.0553C88.0084 88.092 89.3524 88.128 90.6964 88.1633L92.7554 88.2143C93.1404 88.2233 94.6344 87.9213 94.5304 88.5993C94.4794 88.9273 94.4394 89.4183 94.1194 89.6093C93.6758 89.7656 93.196 89.7868 92.7404 89.6703C92.1404 89.6143 91.5314 89.6213 90.9274 89.6073C89.4987 89.5753 88.07 89.546 86.6414 89.5193C83.8427 89.4633 81.043 89.411 78.2424 89.3623Z" fill="white"/>
<path d="M102.528 65.2783C102.387 65.2205 102.236 65.1867 102.083 65.1783C96.6224 64.6273 91.1834 63.8723 85.7474 63.1193C85.0314 63.0193 83.8054 62.5893 83.1474 63.0783C82.6474 63.4523 82.7044 64.2293 82.6084 64.7783C82.4514 65.6843 82.3084 66.5923 82.1614 67.5003C81.8627 69.3143 81.5627 71.128 81.2614 72.9413C80.6727 76.518 80.088 80.0957 79.5074 83.6743C79.2414 85.3223 78.8344 87.2293 80.5024 88.2743C82.3274 89.4163 85.4514 88.9433 87.4684 89.0123C90.0684 89.1003 93.0924 89.6483 95.6564 89.0853C97.6364 88.6503 98.6174 87.1913 99.1024 85.3153C99.9704 81.9563 100.637 78.5503 101.247 75.1363C101.547 73.4523 101.835 71.7673 102.125 70.0823C102.271 69.2403 102.418 68.3983 102.566 67.5563C102.666 66.9913 103.274 65.6853 102.56 65.2953L102.528 65.2783Z" fill="#1A1818"/>
<path d="M96.6374 87.7753C94.6634 89.0583 91.2374 88.3403 88.9914 88.2633C86.7044 88.1853 84.0144 88.4733 81.7914 87.9083C78.7794 87.1443 80.6974 81.4143 81.0564 79.2233C81.4664 76.7233 81.9094 74.2153 82.3344 71.7233C82.6754 69.7163 82.8194 67.6613 83.0454 65.6383C83.1334 64.8553 83.3044 63.9673 84.1574 63.6813C84.7118 63.5589 85.2895 63.5935 85.8254 63.7813C88.2369 64.29 90.6736 64.6712 93.1254 64.9233C95.0554 65.1783 97.0014 65.2993 98.9314 65.5563C99.8574 65.6803 101.349 65.2923 101.923 66.3243C102.463 67.2973 101.7 68.6913 101.482 69.6603C100.633 73.4133 99.9004 77.1803 99.1534 80.9603C98.7354 83.1313 98.6594 86.4623 96.6374 87.7753Z" fill="white"/>
<path d="M101.927 66.3203C101.353 65.2883 99.8624 65.6763 98.9354 65.5523C97.0054 65.2953 95.0594 65.1753 93.1294 64.9193C90.6777 64.6672 88.2409 64.286 85.8294 63.7773C85.6114 63.7253 85.3874 63.6713 85.1634 63.6353C83.5587 70.4587 82.4789 77.395 81.9334 84.3833C81.7994 86.1623 82.0434 87.3513 83.1054 88.1393C85.0274 88.3703 87.1424 88.2013 88.9974 88.2643C91.2474 88.3413 94.6694 89.0643 96.6434 87.7763C98.6654 86.4613 98.7434 83.1303 99.1614 80.9503C99.9094 77.1753 100.642 73.4083 101.49 69.6503C101.704 68.6883 102.47 67.2933 101.927 66.3203Z" fill="#C9D6DC"/>
<path d="M76.2064 78.4003C75.7144 75.7123 72.1524 74.5903 69.7854 74.6583C68.239 74.7243 66.7198 75.0869 65.3104 75.7263C62.7984 76.8453 60.9574 78.9263 59.1624 80.9363C57.5034 82.7933 55.6134 84.5873 52.9564 84.5543C48.9784 84.5033 48.4744 80.3623 47.7324 77.3283C46.9524 74.1363 46.3264 70.8503 45.3254 67.7193C44.7934 65.6638 43.631 63.8264 42.0014 62.4653C38.3254 59.7043 34.1254 62.2033 32.4684 65.9443C30.3124 70.8093 30.7204 76.7063 32.5894 81.5923C34.5474 89.2683 37.7034 99.3643 46.8494 100.792C56.2164 102.252 62.4394 93.4173 66.7824 86.5673C66.7904 86.5533 66.7904 86.5413 66.7974 86.5273C66.866 86.4922 66.9328 86.4534 66.9974 86.4113C67.0094 86.4806 67.0403 86.5453 67.0867 86.5983C67.1331 86.6512 67.1932 86.6903 67.2604 86.7113C67.5626 86.8055 67.8817 86.8327 68.1955 86.791C68.5093 86.7493 68.8102 86.6398 69.0774 86.47C69.3446 86.3002 69.5715 86.0742 69.7425 85.8078C69.9135 85.5414 70.0243 85.2409 70.0674 84.9273C70.0674 84.8973 70.0734 84.8683 70.0774 84.8383C70.0953 84.8397 70.1134 84.8397 70.1314 84.8383C71.5684 84.6383 71.9104 83.6123 71.7314 82.4183C71.9883 82.7994 72.3823 83.0666 72.8314 83.1643C72.986 83.1911 73.1443 83.187 73.2973 83.1522C73.4502 83.1175 73.5948 83.0528 73.7227 82.9618C73.8505 82.8709 73.9591 82.7556 74.0421 82.6225C74.1251 82.4894 74.1809 82.3411 74.2064 82.1863C74.2535 81.2749 73.9867 80.3748 73.4504 79.6363C73.3934 79.5363 73.3254 79.4443 73.2654 79.3473C73.7879 79.8168 74.4747 80.0609 75.1764 80.0263C75.3525 79.9904 75.5195 79.9193 75.6675 79.8173C75.8155 79.7153 75.9414 79.5844 76.0375 79.4326C76.1337 79.2808 76.1983 79.1111 76.2273 78.9337C76.2563 78.7563 76.2492 78.5749 76.2064 78.4003Z" fill="#1A1818"/>
<path d="M32.3024 77.7763C31.9601 76.1536 31.8121 74.496 31.8614 72.8383C31.9614 69.7613 32.6044 65.9683 34.8944 63.7053C37.7224 60.9103 41.5474 62.1183 43.4254 65.2953C44.9494 67.8743 45.3944 71.1493 46.0964 74.0213C46.5914 76.0453 46.9274 78.2593 47.5494 80.3113C43.6453 83.0639 39.4443 85.369 35.0254 87.1833L35.0054 87.1943C33.8749 84.1254 32.9715 80.9776 32.3024 77.7763Z" fill="white"/>
<path d="M75.4084 78.8973C75.1544 79.4143 74.5084 79.1673 74.1554 78.9753C73.6666 78.6158 73.1275 78.3304 72.5554 78.1283C72.4929 78.1136 72.4279 78.1136 72.3654 78.1283C72.0097 77.7349 71.622 77.3717 71.2064 77.0423C70.8064 76.7243 70.2294 77.2903 70.6364 77.6123C71.8402 78.5173 72.7612 79.7467 73.2914 81.1563C73.4154 81.4973 73.6574 82.1013 73.2324 82.2103C73.1884 82.2223 72.8654 82.3963 72.3834 81.9683C72.0789 81.6804 71.8051 81.3617 71.5664 81.0173C71.3134 80.6753 71.0894 80.3173 70.8554 79.9583C70.7764 79.8393 70.6984 79.7193 70.6234 79.5973C70.5797 79.497 70.5236 79.4026 70.4564 79.3163C70.2374 78.9646 69.9772 78.6403 69.6814 78.3503C69.3054 77.9923 68.7354 78.5613 69.1114 78.9203C69.9334 79.7033 72.3334 83.5203 70.0884 84.0203C69.7712 82.7533 69.0019 81.6458 67.9254 80.9063C67.5254 80.5803 66.9534 81.1473 67.3554 81.4763C68.0894 81.9921 68.6847 82.6812 69.0884 83.4823C69.5614 84.6123 69.0484 86.4123 67.5184 85.9323C67.6706 85.7386 67.7895 85.521 67.8704 85.2883C68.0404 84.7973 67.2624 84.5883 67.0934 85.0743C66.8934 85.6513 66.2754 85.7803 65.9604 86.2863C61.9394 92.7183 55.4044 102.131 46.4604 99.8953C41.7344 98.9103 38.6004 95.3293 36.6324 91.1163C36.1544 90.0923 35.7034 89.0283 35.2824 87.9373C39.6985 86.1275 43.9007 83.8345 47.8124 81.1003C47.9474 81.4833 48.0904 81.8603 48.2534 82.2253C48.5532 82.9765 49.0325 83.6428 49.6495 84.1658C50.2664 84.6888 51.0022 85.0526 51.7924 85.2253C56.6354 86.2643 59.3194 81.5203 62.3174 78.7013C65.5424 75.6683 71.0674 73.8273 74.6334 77.3613C74.9454 77.6823 75.6524 78.4003 75.4084 78.8973Z" fill="white"/>
<path d="M63.5614 51.8253C62.9202 51.1952 62.0798 50.8078 61.1843 50.7297C60.2887 50.6516 59.3939 50.8876 58.6534 51.3973C58.0375 51.8899 57.6289 52.5957 57.5084 53.375C57.3878 54.1544 57.5641 54.9506 58.0024 55.6063C58.4867 56.2631 59.1995 56.7147 60.0003 56.8718C60.8011 57.029 61.6317 56.8804 62.3284 56.4553C63.0031 56.0314 63.5188 55.3965 63.7953 54.6492C64.0719 53.902 64.0937 53.0842 63.8574 52.3233C63.7822 52.1444 63.6826 51.9768 63.5614 51.8253Z" fill="#1A1818"/>
<path d="M62.4424 55.3513C62.2148 55.5886 61.9426 55.7787 61.6415 55.9107C61.3403 56.0427 61.0161 56.114 60.6874 56.1205C60.3587 56.127 60.0319 56.0686 59.7257 55.9486C59.4196 55.8286 59.1402 55.6494 58.9034 55.4213C58.695 55.2011 58.5322 54.9418 58.4244 54.6584C58.3165 54.375 58.2658 54.0731 58.2751 53.77C58.2844 53.4669 58.3535 53.1687 58.4785 52.8924C58.6035 52.6162 58.7819 52.3674 59.0034 52.1603C59.2574 51.9183 59.5599 51.7329 59.8909 51.6163C60.2218 51.4998 60.5737 51.4548 60.9234 51.4843C63.0124 51.6233 64.0624 53.7473 62.4424 55.3513Z" fill="white"/>
<path d="M65.5394 39.8984C65.1932 37.6507 64.1299 35.575 62.5081 33.9807C60.8863 32.3865 58.7927 31.359 56.5394 31.0514C54.3001 30.7715 52.0268 31.1006 49.9589 32.0039C47.8909 32.9072 46.1047 34.3514 44.7884 36.1844C40.9884 41.1684 40.9884 47.7844 43.1204 53.4584C42.8324 55.8834 40.8524 58.0344 41.8064 60.5464C42.5164 62.4174 44.3324 63.4704 46.0794 64.2064C47.5664 64.8314 50.0354 65.9783 51.2794 64.2913C51.6641 63.5769 51.8593 62.7757 51.8464 61.9643C51.9784 60.8083 52.1044 59.6514 52.2304 58.4954C55.8304 59.6884 59.7134 57.6634 61.9014 54.5874C64.8586 50.2957 66.1519 45.0741 65.5394 39.8984Z" fill="#1A1818"/>
<path d="M63.8704 48.3953C62.7784 51.9803 60.4704 56.2443 56.8074 57.7283C56.0753 58.0304 55.2893 58.1802 54.4974 58.1683C53.9652 58.137 53.4387 58.0416 52.9294 57.8843C52.3544 57.7303 51.8194 57.4183 51.5934 58.1643C51.1504 59.6243 51.5274 61.2033 50.9614 62.6693C49.8324 65.5973 46.4064 63.7293 44.6514 62.6043C43.7305 62.1076 43.0245 61.2895 42.6681 60.3058C42.3116 59.3221 42.3295 58.2417 42.7184 57.2703C43.1184 56.1193 43.5734 55.0103 43.9004 53.8333C43.944 53.7045 43.9663 53.5694 43.9664 53.4333C43.8346 52.8751 43.6466 52.3317 43.4054 51.8113C43.2234 51.2113 43.0667 50.603 42.9354 49.9863C42.6722 48.7622 42.5239 47.5161 42.4924 46.2643C42.4085 43.7826 42.9104 41.316 43.9574 39.0643C44.4311 38.0781 45.0202 37.1517 45.7124 36.3043C49.1994 32.0373 55.1704 30.3043 60.1174 33.1373C65.6144 36.2813 65.5004 43.0403 63.8704 48.3953Z" fill="white"/>
<path d="M60.1234 33.1334C55.1764 30.2974 49.2054 32.0334 45.7174 36.3004C45.0252 37.1477 44.4361 38.0742 43.9624 39.0604C42.9154 41.312 42.4135 43.7786 42.4974 46.2604C42.5044 46.5384 42.5184 46.8174 42.5374 47.0944C43.6184 47.5037 44.7347 47.8127 45.8724 48.0174C45.8747 48.0849 45.8946 48.1506 45.9304 48.2079C45.9661 48.2652 46.0162 48.3122 46.0758 48.344C46.1354 48.3758 46.2023 48.3914 46.2698 48.3892C46.3373 48.3869 46.403 48.367 46.4604 48.3314C50.1276 45.9792 53.234 42.851 55.5604 39.1674C58.6264 40.6964 61.6684 42.3584 64.7894 43.7824C65.1414 39.6114 64.1104 35.4224 60.1234 33.1334Z" fill="#C9D6DC"/>
<path d="M52.5424 57.7674L50.2054 56.7064C49.5604 56.4144 48.3214 55.5394 47.5594 55.8494C46.2414 56.3844 47.1814 58.9284 47.6204 59.7584C47.9622 60.4315 48.4373 61.0281 49.0168 61.512C49.5963 61.9959 50.2681 62.357 50.9914 62.5734C51.5064 61.1334 51.1604 59.5914 51.5914 58.1624C51.7674 57.5884 52.1244 57.6424 52.5424 57.7674Z" fill="#C9D6DC"/>
<path d="M67.7904 37.8983L69.2384 36.0233C69.8104 35.2823 70.9614 34.2723 70.8904 33.2343C70.7904 31.7043 68.8394 31.9143 67.4554 32.2893C68.2674 31.2693 69.3634 29.7723 68.2304 29.0153C67.5139 28.715 66.7173 28.6639 65.9684 28.8703C65.2889 28.9585 64.6177 29.1016 63.9614 29.2983C64.7554 28.0053 65.7814 26.0823 64.3934 25.5913C63.5764 25.3013 62.4064 25.9473 61.6934 26.2353C60.8455 26.5788 60.0204 26.9763 59.2234 27.4253C59.8384 26.1333 60.3784 24.4693 58.5794 24.6143C57.3247 24.8705 56.1224 25.3371 55.0234 25.9943C53.7588 26.6191 52.5488 27.349 51.4064 28.1763C51.3104 27.447 51.2144 26.7177 51.1184 25.9883C51.0794 25.6883 50.6804 25.3993 50.4304 25.7033C47.2934 29.5233 43.3614 32.9953 41.6064 37.7433C40.8493 39.8165 40.629 42.0474 40.966 44.2286C41.3029 46.4097 42.1861 48.4702 43.5334 50.2183C43.603 50.3071 43.704 50.3658 43.8156 50.3824C43.9272 50.3989 44.041 50.3721 44.1334 50.3073C44.1858 50.296 44.2355 50.2742 44.2794 50.2433C48.9231 47.0427 52.3864 42.4048 54.1364 37.0433C58.1293 37.9586 61.9018 39.6549 65.2364 42.0343C65.2626 42.0528 65.2907 42.0682 65.3204 42.0803C65.3784 42.1396 65.4556 42.1764 65.5382 42.1841C65.6208 42.1918 65.7034 42.1699 65.7714 42.1223L69.0204 40.0783C69.5514 39.7443 70.7724 39.3013 70.8644 38.5593C71.0234 37.3193 69.0704 37.6213 67.7904 37.8983Z" fill="#1A1818"/>
<path d="M68.9434 39.1763L65.5814 41.2903C62.1397 38.8462 58.2429 37.1167 54.1214 36.2043C54.0557 36.1877 53.987 36.1877 53.9214 36.2043C53.8265 36.1854 53.7279 36.2028 53.6452 36.253C53.5625 36.3031 53.5015 36.3825 53.4744 36.4753C51.8395 41.7384 48.5015 46.3086 43.9854 49.4673C42.6812 47.6644 41.8866 45.5434 41.6853 43.3273C41.484 41.1112 41.8834 38.8818 42.8414 36.8733C44.6294 33.0663 47.7414 30.1143 50.4414 26.9443C50.5227 27.5677 50.6047 28.1907 50.6874 28.8133C50.6024 29.1383 50.9204 29.5273 51.2504 29.2793C52.5583 28.2841 53.9587 27.4168 55.4324 26.6893C56.1877 26.2342 57.0048 25.8906 57.8584 25.6693L58.3764 25.4913C58.5594 25.6807 58.6741 25.9256 58.7026 26.1874C58.731 26.4493 58.6715 26.7131 58.5334 26.9373C58.36 27.3946 58.1472 27.8359 57.8974 28.2563C57.6974 28.6763 58.2394 29.0443 58.5134 28.7683C58.5305 28.7631 58.5471 28.7568 58.5634 28.7493C59.8687 27.918 61.2614 27.2326 62.7164 26.7053C62.8944 26.6423 63.3524 26.3953 63.5344 26.4333C64.5654 26.6493 63.9854 27.3893 63.7784 27.7773L62.6874 29.8333C62.6743 29.8534 62.663 29.8744 62.6534 29.8963C62.4224 30.3323 63.0374 30.7143 63.3074 30.3533C64.4689 29.9107 65.6922 29.6513 66.9334 29.5843C67.3484 29.5673 67.3654 29.5003 67.6014 29.9213C67.8684 30.3993 67.6754 30.4633 67.4014 30.8703C67.0014 31.4503 66.6014 32.0243 66.2014 32.6023C66.1664 32.648 66.1437 32.7018 66.1355 32.7587C66.1272 32.8156 66.1338 32.8737 66.1544 32.9273C66.0844 33.2093 66.2804 33.5473 66.6164 33.4113C67.3887 33.016 68.2493 32.8246 69.1164 32.8553C70.7974 33.1803 69.3164 34.6193 68.8634 35.2063L65.8934 39.0523C65.5764 39.4623 66.2764 39.8643 66.5934 39.4583L67.0394 38.8813H67.0554C67.7484 38.7723 68.4414 38.6603 69.1354 38.5563C70.5774 38.3443 69.5264 38.8093 68.9434 39.1763Z" fill="#1A1818"/>
<path d="M45.5094 47.7014C44.8701 47.0679 44.0293 46.6783 43.1327 46.6001C42.2362 46.522 41.3406 46.7601 40.6014 47.2734C39.9855 47.766 39.5769 48.4717 39.4564 49.2511C39.3358 50.0305 39.5121 50.8267 39.9504 51.4824C40.3589 52.1588 41.0142 52.65 41.778 52.8525C42.5419 53.0549 43.3545 52.9527 44.0444 52.5673C45.3284 51.8023 45.9874 49.7404 45.8054 48.1994C45.7416 48.0149 45.6409 47.8455 45.5094 47.7014Z" fill="#1A1818"/>
<path d="M46.0024 51.6734C45.0304 52.6364 41.8414 52.2944 40.8514 51.2984C40.643 51.0781 40.4802 50.8188 40.3723 50.5354C40.2645 50.2521 40.2138 49.9501 40.2231 49.6471C40.2324 49.344 40.3015 49.0458 40.4265 48.7695C40.5515 48.4932 40.7299 48.2444 40.9514 48.0374C41.1904 47.7746 41.491 47.5752 41.8261 47.4572C42.1612 47.3393 42.5204 47.3063 42.8714 47.3614C45.5754 47.9894 47.6224 50.0684 46.0024 51.6734Z" fill="white"/>
<path d="M56.3844 47.3183C56.2116 47.3274 56.0429 47.3746 55.8905 47.4564C55.738 47.5383 55.6056 47.6528 55.5025 47.7919C55.3995 47.9309 55.3285 48.091 55.2946 48.2607C55.2607 48.4303 55.2647 48.6054 55.3064 48.7734C55.6444 49.8104 56.7924 49.1504 56.9674 48.3734C57.1424 47.5964 56.8054 47.2973 56.3844 47.3183Z" fill="#1A1818"/>
<path d="M61.5074 48.7864C61.3346 48.7956 61.1661 48.8428 61.0137 48.9248C60.8614 49.0067 60.729 49.1212 60.626 49.2602C60.523 49.3992 60.452 49.5592 60.418 49.7288C60.384 49.8984 60.3879 50.0734 60.4294 50.2414C60.7664 51.2794 61.9154 50.6183 62.0914 49.8413C62.2674 49.0643 61.9284 48.7684 61.5074 48.7864Z" fill="#1A1818"/>
<path d="M59.5844 48.8333C59.4074 49.5713 59.0294 51.3853 58.1204 51.5173C57.6094 51.5913 57.8264 52.3683 58.3344 52.2943C59.6344 52.1053 60.1104 50.0943 60.3614 49.0473C60.4824 48.5433 59.7054 48.3283 59.5844 48.8333Z" fill="#1A1818"/>
<path d="M57.0394 52.5213C56.7492 52.2171 56.4115 51.9621 56.0394 51.7663C55.4774 51.4243 54.7334 50.8203 54.1124 51.3013C53.8845 51.4956 53.701 51.7366 53.5743 52.0079C53.4475 52.2792 53.3804 52.5745 53.3776 52.874C53.3747 53.1734 53.4362 53.47 53.5578 53.7437C53.6794 54.0173 53.8583 54.2617 54.0824 54.4603C54.3983 54.6493 54.7651 54.7356 55.1322 54.7071C55.4992 54.6786 55.8484 54.5368 56.1314 54.3013C56.5644 53.9913 57.4784 53.0913 57.0394 52.5213Z" fill="#1A1818"/>
<path d="M56.0914 120.368C53.7091 115.819 50.2805 111.9 46.0877 108.934C41.8949 105.968 37.0578 104.04 31.9744 103.309C31.8954 103.298 31.8148 103.309 31.7417 103.341C31.6687 103.373 31.6062 103.425 31.5614 103.491C31.5093 103.471 31.4537 103.461 31.3977 103.462C31.3417 103.463 31.2865 103.476 31.2354 103.499C31.1844 103.522 31.1385 103.555 31.1005 103.596C31.0625 103.637 31.0332 103.686 31.0144 103.738C28.6654 110.245 32.0834 116.93 37.7144 120.424C40.8528 122.283 44.3894 123.366 48.0304 123.584C50.7184 123.797 54.9174 124.172 55.8784 120.935C55.9318 120.915 55.9803 120.883 56.0206 120.843C56.0609 120.802 56.0921 120.753 56.1123 120.7C56.1324 120.646 56.1409 120.589 56.1373 120.532C56.1337 120.475 56.1181 120.419 56.0914 120.368Z" fill="#1A1818"/>
<path d="M56.4894 128.022C53.8294 127.441 35.7234 124.411 33.5074 122.814C28.7704 119.4 29.9074 99.5963 31.7474 104.081C31.7474 104.081 31.7544 104.081 31.7594 104.081C36.7972 104.866 41.5891 106.792 45.7686 109.712C49.9482 112.632 53.4048 116.469 55.8744 120.929C55.8434 120.974 59.1204 128.597 56.4894 128.022Z" fill="white"/>
<path d="M76.1634 111.813C71.3874 109.927 66.2317 109.201 61.1205 109.696C56.0092 110.191 51.0886 111.892 46.7634 114.66C46.6958 114.703 46.6417 114.764 46.6073 114.836C46.573 114.908 46.5598 114.989 46.5694 115.068C46.5165 115.087 46.4679 115.116 46.4264 115.153C46.3849 115.191 46.3514 115.236 46.3278 115.287C46.3042 115.338 46.291 115.392 46.2891 115.448C46.2871 115.504 46.2964 115.56 46.3164 115.612C48.7904 122.072 55.7464 124.899 62.2884 123.867C65.8792 123.224 69.2646 121.733 72.1634 119.518C74.3374 117.918 77.7634 115.462 76.3724 112.384C76.4007 112.334 76.4178 112.278 76.4225 112.22C76.4271 112.163 76.4193 112.105 76.3994 112.051C76.3795 111.996 76.3481 111.947 76.3074 111.906C76.2667 111.865 76.2175 111.833 76.1634 111.813Z" fill="#1A1818"/>
<path d="M81.4674 117.346C79.0744 118.646 63.3894 128.183 60.6674 128.422C54.8514 128.933 42.7674 113.204 47.0934 115.392C47.0934 115.392 47.1014 115.392 47.1054 115.392C51.432 112.695 56.3179 111.022 61.3899 110.503C66.4618 109.983 71.5855 110.629 76.3694 112.392C76.3724 112.433 83.8344 116.062 81.4674 117.346Z" fill="white"/>
<path d="M86.4304 9.55931C84.9631 8.97979 83.3479 8.88952 81.8252 9.30196C80.3025 9.7144 78.9536 10.6075 77.9794 11.8483C75.6534 14.9953 76.6264 19.1383 78.1354 22.4113C78.2879 23.0533 78.2919 23.7215 78.1474 24.3653C77.9058 24.3275 77.6584 24.3704 77.4437 24.4874C77.2289 24.6043 77.0587 24.7888 76.9594 25.0123C76.8612 25.2634 76.8612 25.5422 76.9594 25.7933C76.8417 25.8447 76.7354 25.9191 76.6468 26.012C76.5581 26.105 76.489 26.2147 76.4432 26.3347C76.3975 26.4547 76.3762 26.5827 76.3805 26.711C76.3848 26.8394 76.4147 26.9656 76.4684 27.0823C76.2715 27.2695 76.1513 27.5233 76.1314 27.7943C76.1228 27.951 76.149 28.1075 76.2079 28.2529C76.2669 28.3983 76.3572 28.5288 76.4724 28.6353C76.4962 28.7269 76.5505 28.8077 76.6264 28.8643C76.7324 28.9453 76.8424 29.0153 76.9514 29.0883C76.8508 29.5035 76.8655 29.9382 76.9938 30.3457C77.1221 30.7531 77.3592 31.1179 77.6795 31.4005C77.9999 31.6831 78.3912 31.873 78.8115 31.9496C79.2317 32.0263 79.6649 31.9867 80.0644 31.8353C80.6144 31.6193 81.5214 30.9263 81.3384 30.2243C81.4214 30.2183 81.5024 30.2173 81.5854 30.2073C81.7745 30.2378 81.968 30.2258 82.1518 30.1721C82.3357 30.1185 82.5053 30.0246 82.6484 29.8973C82.7914 29.7699 82.9043 29.6123 82.9789 29.4359C83.0534 29.2595 83.0877 29.0687 83.0794 28.8773C83.2984 28.7288 83.4518 28.5016 83.5076 28.2429C83.5635 27.9842 83.5176 27.714 83.3794 27.4883C83.5991 27.2557 83.7319 26.9544 83.7554 26.6352C83.7789 26.3161 83.6917 25.9986 83.5084 25.7363C83.4984 25.7233 83.4854 25.7153 83.4754 25.7033C83.8012 25.155 84.2454 24.6862 84.7754 24.3313C86.3346 23.9266 87.7442 23.081 88.8351 21.8957C89.926 20.7104 90.6521 19.2357 90.9264 17.6483C91.1423 15.9963 90.8219 14.3185 90.0125 12.8623C89.2031 11.406 87.9474 10.2482 86.4304 9.55931Z" fill="#1A1818"/>
<path d="M82.6734 27.0483C82.5962 27.0906 82.5367 27.1591 82.5057 27.2415C82.4746 27.3239 82.4742 27.4146 82.5044 27.4973C82.4893 27.5579 82.4906 27.6214 82.5082 27.6814C82.5258 27.7413 82.559 27.7955 82.6044 27.8383C82.8044 28.0033 82.7454 28.2133 82.4874 28.2523C82.3837 28.2813 82.2957 28.3502 82.2429 28.4439C82.19 28.5377 82.1765 28.6486 82.2054 28.7523C82.2179 28.7921 82.2368 28.8296 82.2614 28.8633C82.2746 28.9274 82.2746 28.9935 82.2615 29.0575C82.2483 29.1216 82.2222 29.1823 82.1847 29.2359C82.1473 29.2896 82.0993 29.335 82.0437 29.3695C81.9881 29.4039 81.9261 29.4267 81.8614 29.4363C81.7928 29.4067 81.7174 29.3963 81.6434 29.4063C80.1393 29.6275 78.6074 29.2701 77.3564 28.4063C77.3394 28.345 77.3081 28.2886 77.2649 28.2418C77.2218 28.195 77.1681 28.1592 77.1084 28.1373C76.8334 28.0373 76.8934 27.7743 77.0664 27.6373C77.1524 27.6443 77.2385 27.6246 77.3129 27.581C77.3873 27.5373 77.4465 27.4718 77.4824 27.3933C77.4893 27.3788 77.495 27.3638 77.4994 27.3483C77.5109 27.3194 77.5189 27.2892 77.5234 27.2583C77.5234 27.2463 77.5234 27.2343 77.5234 27.2223C77.5249 27.1869 77.5208 27.1515 77.5114 27.1173C77.4944 27.0396 77.4568 26.9678 77.4024 26.9097C77.348 26.8516 77.2789 26.8093 77.2024 26.7873C77.1144 26.6283 77.2744 26.4363 77.5124 26.5313C77.6002 26.5552 77.6936 26.5484 77.777 26.512C77.8605 26.4757 77.9291 26.4119 77.9714 26.3313C77.9966 26.3097 78.0188 26.2848 78.0374 26.2573C78.0901 26.1648 78.1045 26.0552 78.0774 25.9522C78.0503 25.8492 77.9838 25.7609 77.8924 25.7063C77.5534 25.5483 77.6654 25.1463 77.9774 25.1623C77.9974 25.208 78.0259 25.2493 78.0614 25.2843C78.6726 25.9177 79.4591 26.3542 80.32 26.5377C81.1809 26.7212 82.077 26.6434 82.8934 26.3143C82.9516 26.4426 82.9613 26.5876 82.9209 26.7225C82.8805 26.8575 82.7925 26.9732 82.6734 27.0483Z" fill="#C9D6DC"/>
<path d="M90.1094 17.5943C89.8816 19.0389 89.2086 20.3765 88.1844 21.4203C87.6804 21.9362 87.1085 22.3809 86.4844 22.7423C85.2944 23.4343 84.0354 23.4983 83.2104 24.7203C83.0574 24.9473 82.8924 25.4653 82.6184 25.5733C81.9905 25.8304 81.3025 25.9039 80.6345 25.7855C79.9664 25.6671 79.3457 25.3615 78.8444 24.9043C78.6504 24.7303 79.0244 23.8683 79.0444 23.6333C79.2214 21.9583 78.1134 20.5143 77.7224 18.9513C77.4093 17.933 77.3012 16.8627 77.4041 15.8023C77.5071 14.7419 77.8192 13.7124 78.3224 12.7733C79.1383 11.5256 80.3616 10.5993 81.7839 10.1524C83.2062 9.70546 84.7394 9.76552 86.1224 10.3223C87.4854 10.9385 88.6112 11.9809 89.3303 13.2925C90.0494 14.6041 90.3228 16.1138 90.1094 17.5943Z" fill="white"/>
<path d="M84.5584 18.8693C84.3973 18.6518 84.1782 18.484 83.9261 18.3854C83.6741 18.2867 83.3993 18.261 83.1334 18.3113C82.6222 18.42 82.1635 18.7002 81.8334 19.1053C81.5104 18.4113 80.8544 17.8053 80.0954 18.3843C79.0724 19.1613 79.9754 20.7063 80.3144 21.6023C80.3293 21.6347 80.3484 21.665 80.3714 21.6923L79.6984 25.6223C79.6114 26.1293 80.3874 26.3473 80.4754 25.8363L81.1994 21.6083C81.2147 21.5261 81.2048 21.4412 81.1709 21.3648C81.137 21.2884 81.0806 21.224 81.0094 21.1803C80.8106 20.7296 80.64 20.2671 80.4984 19.7953C80.4334 19.5473 80.3524 18.6603 80.9404 19.0953C81.1644 19.2603 81.2004 19.6463 81.2404 19.8953C81.2462 19.9416 81.2618 19.9861 81.2861 20.0259C81.3103 20.0658 81.3427 20.1001 81.3811 20.1265C81.4196 20.1529 81.4632 20.1709 81.509 20.1794C81.5549 20.1878 81.6021 20.1864 81.6474 20.1753C81.7158 20.2092 81.794 20.2178 81.8682 20.1995C81.9423 20.1812 82.0076 20.1372 82.0524 20.0753C82.3914 19.6623 83.1194 18.7323 83.7524 19.1933C84.1084 19.4523 83.8674 19.8793 83.5684 20.0703C83.2082 20.2489 82.8103 20.3377 82.4084 20.3293C82.2994 20.337 82.1979 20.3873 82.1256 20.4692C82.0534 20.5512 82.0163 20.6583 82.0224 20.7673C81.6744 22.3987 81.3267 24.03 80.9794 25.6613C80.8714 26.1673 81.6484 26.3833 81.7564 25.8763C82.0957 24.285 82.4347 22.6943 82.7734 21.1043C83.3274 21.0914 83.8602 20.8884 84.2824 20.5293C84.5124 20.3266 84.6654 20.0508 84.7157 19.7484C84.766 19.446 84.7104 19.1355 84.5584 18.8693Z" fill="#1A1818"/>
<path d="M73.5894 9.4883L71.2634 6.68829C70.9314 6.28829 70.3634 6.86229 70.6934 7.25829L73.0194 10.0533C73.3514 10.4563 73.9194 9.8843 73.5894 9.4883Z" fill="#1A1818"/>
<path d="M83.6854 1.2583C83.604 2.47697 83.5227 3.69597 83.4414 4.9153C83.4064 5.4333 84.2124 5.4313 84.2474 4.9153C84.3287 3.69597 84.41 2.47697 84.4914 1.2583C84.5254 0.740303 83.7194 0.741303 83.6854 1.2583Z" fill="#1A1818"/>
<path d="M98.1084 7.68332L94.6914 10.6043C94.2964 10.9423 94.8694 11.5043 95.2614 11.1743L98.6784 8.25331C99.0724 7.91531 98.5014 7.34732 98.1084 7.68332Z" fill="#1A1818"/>
</svg>
