<svg width="22" height="22" viewBox="0 0 22 22" fill="none" xmlns="http://www.w3.org/2000/svg">
<path d="M4.889 13.3175L4.151 16.0735L1.451 16.1305C0.635282 14.6106 0.201908 12.915 0.188318 11.1901C0.174728 9.46524 0.581332 7.763 1.373 6.23047L3.773 6.67047L4.83 9.05948C4.35653 10.4439 4.37738 11.9497 4.889 13.3205V13.3175Z" fill="#FBBB00"/>
<path d="M21.2151 9.12338C21.5752 11.0145 21.4135 12.968 20.7474 14.7741C20.0813 16.5803 18.9358 18.171 17.4341 19.3754L14.4081 19.2214L13.98 16.5474C15.2298 15.8149 16.1901 14.6753 16.7 13.3194H11.0291V9.11938H21.2161L21.2151 9.12338Z" fill="#518EF8"/>
<path d="M17.433 19.3744C16.2193 20.3484 14.8062 21.0434 13.2939 21.4102C11.7816 21.777 10.2071 21.8066 8.68208 21.497C7.15704 21.1873 5.71879 20.546 4.46932 19.6183C3.21984 18.6907 2.18974 17.4996 1.45203 16.1294L4.88903 13.3164C5.21187 14.1765 5.71866 14.9556 6.37398 15.5994C7.02929 16.2432 7.81732 16.7361 8.68296 17.0436C9.5486 17.3511 10.471 17.4659 11.3856 17.3799C12.3002 17.2938 13.1849 17.009 13.978 16.5454L17.433 19.3744Z" fill="#28B446"/>
<path d="M17.564 2.94141L14.128 5.75341C13.3232 5.25177 12.4156 4.93806 11.4729 4.83565C10.5301 4.73323 9.57632 4.84473 8.68259 5.16187C7.78885 5.479 6.97814 5.99359 6.31078 6.66735C5.64341 7.34111 5.13657 8.1567 4.82798 9.05341L1.37598 6.22741C2.10497 4.82078 3.13978 3.5953 4.40441 2.64096C5.66904 1.68663 7.13137 1.02768 8.68402 0.712509C10.2367 0.397337 11.8402 0.433948 13.3768 0.819652C14.9135 1.20536 16.3442 1.93036 17.564 2.94141Z" fill="#F14336"/>
</svg>
