<svg width="74" height="140" viewBox="0 0 74 140" fill="none" xmlns="http://www.w3.org/2000/svg">
<path d="M32.3893 17.5905C32.3139 17.5268 32.2178 17.4968 32.1215 17.5069C32.0253 17.517 31.9367 17.5664 31.8748 17.6445C30.1705 17.1645 28.8989 18.2835 29.8081 20.1705C31.0997 22.5522 33.0829 24.4362 35.467 25.5465C35.5196 25.5774 35.5789 25.5935 35.6392 25.5932C35.6994 25.5928 35.7586 25.5761 35.8109 25.5446C35.8632 25.5131 35.9068 25.4678 35.9375 25.4133C35.9683 25.3588 35.985 25.2969 35.9862 25.2335C35.9483 23.7618 35.607 22.3163 34.986 20.9967C34.365 19.6771 33.4791 18.515 32.3893 17.5905Z" fill="#1A1818"/>
<path d="M30.9798 20.7556C30.7833 20.5279 30.6228 20.2686 30.5043 19.9875C30.3892 19.4875 31.2385 18.1876 31.8358 18.3876C31.8872 18.4069 31.9426 18.4109 31.996 18.3991C32.0494 18.3872 32.0987 18.3601 32.1382 18.3206C33.9204 19.9151 35.0395 22.1787 35.2568 24.6286C33.5609 23.7144 32.0967 22.3885 30.9855 20.7606L30.9798 20.7556Z" fill="#1A1818"/>
<path d="M68.8639 87.6746C68.9029 87.5964 68.9153 87.5064 68.8988 87.4198C68.8824 87.3331 68.8382 87.2551 68.7736 87.1986C67.6977 81.24 65.8838 75.4555 63.3781 69.9926C61.4836 65.8856 58.7626 60.9136 53.836 60.7716C48.7107 60.6226 47.2042 66.2306 47.364 70.6286C47.6189 77.6186 48.3398 84.6226 48.8363 91.5976C48.8377 91.6608 48.8547 91.7226 48.8855 91.777C48.9163 91.8313 48.9599 91.8764 49.0121 91.9078C49.0643 91.9393 49.1233 91.9561 49.1835 91.9566C49.2436 91.957 49.3029 91.9412 49.3555 91.9106C55.2629 89.0775 61.7032 87.6861 68.1944 87.8406C68.2124 87.9406 68.2333 88.0406 68.2505 88.1406C68.3294 88.5986 68.9942 88.4046 68.9162 87.9476C68.8991 87.8586 68.8801 87.7666 68.8639 87.6746Z" fill="#1A1818"/>
<path d="M49.4877 91.0606C49.0997 85.6166 48.712 80.1729 48.3246 74.7296C48.1277 71.9546 47.675 68.9606 48.395 66.2296C49.2034 63.1616 51.6172 61.0146 54.7386 61.5946C59.6841 62.5126 62.0304 68.4276 63.8175 72.7166C65.7272 77.3372 67.1493 82.164 68.0583 87.1106C61.6682 86.9874 55.3298 88.3356 49.4877 91.0606Z" fill="#C9D6DC"/>
<path d="M14.2163 44.6676C13.1635 43.4676 12.2514 41.9996 12.7897 40.2966C13.2652 38.7636 14.5967 37.7456 15.622 36.6416C16.7633 35.4166 17.9169 33.8586 17.6421 32.0266C17.2721 29.5576 14.7451 28.6516 13.7332 26.6066C12.2428 23.5966 16.2297 23.6656 16.3286 21.1716C16.3895 19.6386 12.7669 18.6716 11.6684 18.4666C9.67555 18.0527 7.60758 18.4433 5.87636 19.5606C4.48923 20.4389 3.47552 21.8434 3.04428 23.4845C2.61303 25.1256 2.79713 26.878 3.5586 28.3806C3.99895 29.1676 4.64853 29.7876 5.12122 30.5486C5.56965 31.3006 5.80543 32.1712 5.80105 33.0589C5.79668 33.9465 5.55232 34.8145 5.09649 35.5616C4.02463 37.7276 2.17004 39.3506 1.20566 41.5866C-0.191466 44.8246 1.30837 47.2346 3.77354 49.1396C5.09648 50.1636 6.66574 51.0926 7.53217 52.6166C8.99492 55.1866 7.54929 58.1396 7.81749 60.8886C8.04765 63.2886 10.627 66.4186 12.9352 64.2076C14.4407 62.7646 13.8245 60.4006 14.241 58.5646C14.707 56.5086 16.2021 54.9946 17.1266 53.1766C19.0239 49.4296 16.5179 47.2906 14.2163 44.6676Z" fill="#1A1818"/>
<path d="M17.1114 51.2016C16.8109 52.8886 15.5897 54.2646 14.7442 55.6716C14.0783 56.6947 13.6378 57.861 13.4545 59.0856C13.4613 60.245 13.3445 61.4015 13.1064 62.5336C12.084 65.3946 9.19564 63.8686 8.62975 61.6626C7.75287 58.2436 10.0421 54.6926 7.67108 51.5896C6.02573 49.4366 3.06505 48.5276 1.78871 46.0536C-0.316957 41.9726 4.78744 38.4536 6.08565 35.0226C6.40577 34.2915 6.55174 33.4894 6.51098 32.6857C6.47021 31.8819 6.24394 31.1007 5.85169 30.4096C4.56204 28.2096 2.9785 26.8186 3.62523 23.9446C4.95007 18.0536 11.7245 18.2636 15.5906 20.9876C15.7713 22.3006 13.9539 22.6276 13.3242 23.3536C12.9809 23.756 12.7637 24.2598 12.7022 24.7966C12.664 25.3767 12.7431 25.9587 12.9344 26.5042C13.1257 27.0498 13.4249 27.5465 13.8121 27.9616C15.1484 29.6036 17.6316 30.9946 16.8261 33.5876C16.1718 35.6956 14.0937 36.8486 12.9086 38.5726C11.1587 41.1186 12.1639 43.5306 14.0889 45.5656C15.5659 47.1276 17.5594 48.6956 17.1114 51.2016Z" fill="#1A1818"/>
<path d="M17.1704 19.0936C17.1642 19.045 17.1469 18.9986 17.1201 18.9585C17.0933 18.9183 17.0577 18.8855 17.0163 18.8629C16.9749 18.8402 16.9289 18.8284 16.8822 18.8284C16.8355 18.8283 16.7895 18.8401 16.7481 18.8626C16.7285 18.8497 16.7078 18.8386 16.6863 18.8296C15.9909 18.6128 15.2482 18.6317 14.5635 18.8836C13.8789 19.1355 13.287 19.6076 12.8719 20.233C12.4567 20.8584 12.2393 21.6054 12.2505 22.3679C12.2617 23.1305 12.501 23.87 12.9343 24.4816C13.7275 25.5816 15.3538 26.2606 16.3582 25.0686C17.5908 23.6146 17.4519 20.8546 17.1704 19.0936Z" fill="#1A1818"/>
<path d="M16.322 23.5336C16.1251 24.1776 15.8788 24.9336 15.0409 24.9896C14.6766 24.9595 14.3257 24.8316 14.0218 24.6182C13.7179 24.4048 13.4712 24.1129 13.3052 23.7706C13.0229 23.266 12.8925 22.6833 12.9311 22.0992C12.9698 21.5152 13.1756 20.9571 13.5216 20.4984C13.8676 20.0397 14.3376 19.7018 14.8697 19.5293C15.4018 19.3567 15.971 19.3575 16.5027 19.5316C16.515 19.5324 16.5274 19.5324 16.5398 19.5316C16.7568 20.8657 16.6824 22.2343 16.322 23.5336Z" fill="#FF7126"/>
<path d="M37.0819 134.216C37.0387 134.182 36.9891 134.16 36.9366 134.15C36.8841 134.139 36.83 134.141 36.7784 134.156C36.7268 134.17 36.6788 134.196 36.638 134.233C36.5972 134.269 36.5647 134.314 36.5427 134.366C36.1879 135.21 35.8322 136.053 35.4794 136.898C35.3204 137.158 35.2122 137.45 35.1608 137.755C35.1093 138.06 35.1158 138.372 35.1798 138.675C35.5869 139.819 37.0515 139.783 38.0016 139.818C39.8408 139.876 41.6817 139.806 43.5121 139.61C44.3358 139.525 45.224 139.238 45.1166 138.172C45.0053 137.046 43.4113 136.446 42.6248 136.038C40.8724 135.147 39.0047 134.533 37.0819 134.216Z" fill="#1A1818"/>
<path d="M43.7861 137.378L43.8565 137.427C44.098 137.596 44.5717 137.872 44.5032 138.247C44.3605 139.034 43.0965 138.905 42.5364 138.921C41.7318 138.943 40.9265 138.959 40.1207 138.969C39.0745 138.984 38.0026 139.06 36.9621 138.969C36.381 138.916 35.9046 138.885 35.896 138.151C35.9579 137.516 36.1507 136.904 36.4609 136.357C36.6581 135.89 36.8553 135.421 37.0525 134.949C38.1845 135.138 39.2983 135.432 40.3812 135.828C41.1754 136.128 41.9762 136.406 42.7409 136.78C43.102 136.953 43.4513 137.153 43.7861 137.378Z" fill="#1A1818"/>
<path d="M23.2696 125.984C23.2731 125.928 23.2648 125.872 23.2453 125.82C23.2258 125.768 23.1955 125.721 23.1566 125.682C23.1178 125.644 23.0713 125.615 23.0206 125.598C22.9699 125.581 22.9162 125.576 22.8635 125.584C21.9951 125.715 21.1258 125.843 20.2575 125.977C19.9628 125.973 19.6703 126.031 19.3969 126.146C19.1235 126.262 18.8746 126.433 18.6645 126.651C17.9578 127.619 18.7596 128.907 19.2351 129.773C20.1621 131.442 21.1931 133.046 22.3213 134.573C22.8254 135.262 23.5273 135.901 24.331 135.243C25.1803 134.543 24.8208 132.808 24.7333 131.89C24.5238 129.856 24.0306 127.866 23.2696 125.984Z" fill="#1A1818"/>
<path d="M24.2692 133.638C24.2692 133.668 24.2692 133.697 24.2692 133.727C24.2606 134.027 24.2891 134.6 23.9505 134.738C23.2401 135.027 22.6752 133.832 22.3651 133.338C21.9213 132.632 21.4822 131.922 21.0479 131.209C20.4839 130.286 19.8534 129.369 19.3788 128.39C19.1144 127.843 18.887 127.402 19.4739 127.006C20.0181 126.725 20.6141 126.573 21.22 126.56L22.6695 126.342C23.1149 127.451 23.4668 128.599 23.7213 129.773C23.903 130.638 24.1018 131.502 24.2035 132.382C24.2529 132.798 24.2748 133.218 24.2692 133.638Z" fill="#1A1818"/>
<path d="M64.0829 17.3505C63.4675 15.0345 61.5036 10.2075 58.482 12.6305C58.4175 12.6722 58.3673 12.7344 58.3387 12.8082C58.3101 12.8819 58.3047 12.9633 58.3232 13.0405C61.0604 20.5065 56.3174 27.7005 50.2524 31.2825C47.0389 33.0972 43.5936 34.416 40.0227 35.1985C38.2651 35.6205 36.4914 35.9615 34.7148 36.2735C33.0874 36.4744 31.4869 36.8689 29.9442 37.4495C28.2693 38.209 26.673 39.1473 25.1803 40.2495C18.5628 44.8224 12.9592 50.8398 8.75054 57.8925C7.62162 59.8405 6.59161 62.0165 6.77612 64.2925C6.89881 65.3271 7.22365 66.3238 7.73021 67.22C8.23676 68.1163 8.9141 68.8927 9.71968 69.5005C11.3411 70.7059 13.2015 71.5087 15.1607 71.8485C17.3647 72.3046 19.621 72.4132 21.8553 72.1705C22.9898 72.1046 24.0962 71.7747 25.0947 71.2045C25.5902 70.913 26.0072 70.4941 26.3066 69.9868C26.606 69.4796 26.7781 68.9008 26.8066 68.3045C26.8159 68.206 26.8036 68.1065 26.7706 68.0138C26.7376 67.9211 26.6849 67.8375 26.6164 67.7695C26.463 67.6836 26.2848 67.6604 26.1161 67.7045C23.4531 68.0445 20.5248 67.8045 18.4743 65.9895C18.1886 65.7791 17.9517 65.5037 17.7811 65.1837C17.6105 64.8638 17.5107 64.5076 17.489 64.1415C17.5308 63.1785 18.4172 62.5245 19.238 62.0935C22.0417 60.6205 25.1593 59.9255 28.0097 58.5565C28.0183 58.5565 28.0268 58.5455 28.0363 58.5405C28.179 58.4625 30.9257 65.6105 31.1463 66.2685C31.5946 67.6019 32.0036 68.9519 32.3732 70.3185C32.5634 71.0172 32.7422 71.7192 32.9096 72.4245C32.9468 72.813 33.0616 73.1889 33.2465 73.5275C33.4313 73.8661 33.6821 74.1599 33.9824 74.3895C34.7088 74.8541 35.467 75.2612 36.2507 75.6075C37.3237 76.1538 38.4454 76.5872 39.5994 76.9015C41.8933 77.5309 44.2892 77.6332 46.6241 77.2015C48.2235 76.9107 49.7589 76.3153 51.1549 75.4445C51.8404 75.0102 52.4807 74.5018 53.0657 73.9275C53.3715 73.6267 53.6607 73.3079 53.9321 72.9725C54.089 72.7795 54.6711 72.2095 54.6711 71.9555C57.3103 67.8845 55.7039 62.3355 54.44 58.0425C53.2207 53.9308 51.5357 49.9882 49.4212 46.2995C54.9425 44.3917 59.5499 40.3156 62.2817 34.9218C65.0136 29.5281 65.6588 23.2335 64.0829 17.3515V17.3505Z" fill="#1A1818"/>
<path d="M62.1465 33.6165C60.8483 36.448 59.0196 38.9746 56.77 41.0447C54.5204 43.1149 51.8963 44.6859 49.055 45.6635C48.6423 44.9635 48.221 44.2635 47.7797 43.5835C47.5314 43.2005 46.9332 43.5625 47.1843 43.9495C49.6485 47.7333 51.6416 51.8333 53.1152 56.1495C54.4866 60.2035 56.3954 65.7135 54.8842 69.9435C53.4176 74.0495 48.8924 76.2535 44.9826 76.6775C40.9699 77.1204 36.9536 75.8762 33.8103 73.2165L33.797 73.2075C32.3442 66.7072 30.0058 60.4617 26.8542 54.6645C26.8058 54.5865 26.7307 54.5309 26.6444 54.5095C26.5581 54.4881 26.4673 54.5023 26.3907 54.5494C26.3142 54.5964 26.2578 54.6727 26.2332 54.7622C26.2087 54.8518 26.2178 54.9479 26.2588 55.0305C26.7902 56.0079 27.2974 56.9972 27.7805 57.9985C24.9139 58.8984 22.1061 59.9938 19.375 61.2775C18.1804 61.8395 16.8461 62.6535 16.6873 64.0185C16.5246 65.4185 17.722 66.5845 18.9137 67.2435C21.1173 68.4531 23.6376 68.8687 26.0876 68.4265C26.0773 68.8726 25.9554 69.3079 25.7341 69.6887C25.5129 70.0695 25.2002 70.3822 24.8275 70.5955C24.0768 71.0125 23.2505 71.2573 22.4032 71.3135C20.3218 71.5678 18.2184 71.549 16.1413 71.2575C14.0696 71.052 12.0764 70.3204 10.3332 69.1255C9.4687 68.5199 8.75381 67.7065 8.24758 66.7527C7.74135 65.7989 7.45833 64.7321 7.42194 63.6405C7.55068 62.0103 8.0685 60.4405 8.92747 59.0765C13.5183 50.6495 20.4259 44.7915 27.8966 39.3595C31.7627 36.5485 36.5608 36.7325 40.9605 35.6485C44.6662 34.8467 48.2266 33.4289 51.5078 31.4485C54.1639 29.7849 56.3753 27.4401 57.9352 24.6335C59.0548 22.5836 59.6978 20.2844 59.8117 17.9235C59.8626 16.76 59.7566 15.5948 59.4968 14.4625C59.2876 13.5675 58.9005 12.9565 60.077 12.8555C61.2249 12.7555 62.041 13.9015 62.5155 14.8635C65.2584 20.4525 64.6107 28.0865 62.1465 33.6165Z" fill="#FF7126"/>
<path d="M68.6727 5.25555C68.6648 4.96291 68.5548 4.68356 68.3637 4.47073C68.1725 4.2579 67.9135 4.12649 67.636 4.10156C66.747 4.09199 65.8712 4.32857 65.0967 4.78755L65.9022 4.02356C66.4084 3.65354 66.8377 3.17929 67.1643 2.62956C67.2373 2.47823 67.2724 2.30988 67.2664 2.14035C67.2604 1.97081 67.2135 1.80566 67.1301 1.66044C67.0467 1.51522 66.9295 1.3947 66.7896 1.31022C66.6496 1.22575 66.4916 1.18009 66.3302 1.17755C65.8172 1.14909 65.3062 1.26435 64.8494 1.51155C64.8437 1.50109 64.8374 1.49107 64.8304 1.48155C62.215 -1.21845 58.2566 5.79355 57.4491 7.65655C57.4282 7.70485 57.4178 7.75748 57.4187 7.81056C57.2199 7.55056 57.0326 7.25856 56.81 6.95756C56.6236 6.65238 56.334 6.43293 55.9997 6.34355C55.1989 6.20055 54.8527 7.02556 54.9231 7.73056C55.2484 9.56824 56.1713 11.2298 57.5338 12.4306C58.1685 13.0664 58.8574 13.6394 59.5919 14.1426C59.8668 14.3316 60.0608 14.1616 60.3033 14.0136C60.51 13.8876 60.7132 13.7542 60.9129 13.6136C61.32 13.3326 61.7147 13.0296 62.0989 12.7136C62.8702 12.0826 63.6054 11.4055 64.3558 10.7465C65.2584 9.95455 66.1724 9.17355 67.0645 8.36755C67.3831 8.08055 67.9575 7.72956 67.9737 7.20655C67.9971 6.97333 67.9367 6.73931 67.8044 6.55055C68.0468 6.43723 68.2556 6.25701 68.4085 6.029C68.5613 5.801 68.6526 5.53372 68.6727 5.25555Z" fill="#1A1818"/>
<path d="M66.956 6.27955C66.5195 6.49855 66.0049 6.57955 65.5703 6.78555C65.168 6.97955 64.7809 7.20654 64.3967 7.43954C63.7909 7.80554 63.2002 8.20355 62.6315 8.63055C62.5231 8.71255 62.4137 8.79354 62.31 8.88354C61.9905 9.15954 62.4479 9.63455 62.7647 9.36055C63.6454 8.58619 64.6206 7.93913 65.6644 7.43655C65.9579 7.22495 66.2807 7.06205 66.6212 6.95355C66.7093 6.93306 66.8011 6.93824 66.8866 6.96855C66.9574 7.00044 67.0175 7.05385 67.0592 7.12192C67.1008 7.18999 67.1222 7.26961 67.1205 7.35055C67.1158 7.60555 66.9123 7.72955 66.7401 7.86655C66.51 8.05155 66.2827 8.24055 66.0639 8.44055C65.81 8.67355 65.5142 8.84855 65.2555 9.07554C64.4119 9.81555 63.5959 10.5886 62.7504 11.3266C62.2882 11.7266 61.8183 12.1216 61.3314 12.4906C61.0213 12.7256 60.7027 12.9325 60.4031 13.1815C60.2543 13.3249 60.0641 13.4118 59.8629 13.4285C59.5338 13.4285 59.2542 13.1285 59.0174 12.9205C58.7264 12.6665 58.4468 12.3965 58.17 12.1205C57.9305 11.8849 57.7026 11.6366 57.4872 11.3766C57.4244 11.2996 57.3616 11.2226 57.2969 11.1436C56.9384 10.6816 55.4604 8.66255 55.6535 8.02055C56.1033 6.52055 56.4296 7.65755 56.6445 7.99455C56.8526 8.33517 57.1197 8.63164 57.432 8.86854C57.8966 9.19968 58.4358 9.39691 58.9955 9.44055C59.4055 9.48955 59.4017 8.81455 58.9955 8.76555C58.4154 8.69555 57.7287 8.45955 57.9998 7.99155C58.6287 6.7185 59.3488 5.49765 60.1539 4.33955C60.8368 3.48455 62.9368 0.808556 64.2436 1.83356C63.7451 2.14336 63.2684 2.49024 62.817 2.87155C61.7918 3.73637 60.9526 4.81985 60.3546 6.05055C60.1644 6.43555 60.7179 6.77755 60.9091 6.39155C61.6844 4.78409 62.8963 3.45491 64.391 2.57255C64.6944 2.39555 65.4286 1.78955 65.7225 1.90155C66.4833 1.83455 66.6089 2.24955 66.1838 2.83655L65.4428 3.53654C64.4955 4.53619 63.4799 5.46167 62.4042 6.30556C62.1189 6.50556 61.845 6.70555 61.5749 6.92155C61.2496 7.18055 61.5691 7.76755 61.8982 7.50455C62.6909 6.85909 63.5417 6.29674 64.4385 5.82554C65.1489 5.45273 65.8895 5.14751 66.6517 4.91354C66.994 4.81354 67.7739 4.79755 67.715 5.36255C67.6855 5.54317 67.6069 5.71094 67.4886 5.84555C67.3432 6.02917 67.1614 6.17728 66.956 6.27955Z" fill="white"/>
<path d="M56.8214 72.2585C56.8237 70.0514 56.7072 67.8458 56.4724 65.6525C56.4585 65.5532 56.4442 65.4532 56.4296 65.3525C56.4234 65.2886 56.4056 65.2265 56.3773 65.1695C56.3345 65.1149 56.2743 65.0783 56.208 65.0666C56.1416 65.0548 56.0734 65.0687 56.0159 65.1055C48.8693 68.673 41.1148 70.697 33.2111 71.0575C33.0456 71.0645 32.1906 71.2045 32.2876 71.6105C32.9579 74.4221 33.4347 77.2809 33.7142 80.1645C33.9934 83.0516 34.0792 85.9558 33.971 88.8555C33.6498 97.57 31.6131 106.12 27.9897 113.965C26.7817 116.578 25.3979 119.097 23.8488 121.504C23.3828 122.228 22.9019 122.94 22.406 123.642C22.1575 123.993 21.9054 124.341 21.6499 124.687C21.3724 125.008 21.1267 125.359 20.9166 125.733C20.6656 126.271 21.0508 126.471 21.377 126.788C21.7032 127.105 22.0104 127.406 22.328 127.714C22.6456 128.086 23.0009 128.422 23.3875 128.714C23.8307 128.985 24.098 128.606 24.4423 128.335C24.7219 128.114 24.9989 127.89 25.2735 127.664C25.8226 127.212 26.3641 126.75 26.8979 126.277C27.9619 125.334 28.9919 124.351 29.9879 123.328C31.973 121.289 33.8165 119.103 35.5041 116.788C38.8772 112.159 41.6108 107.053 43.6234 101.62C43.6586 101.525 43.6938 101.43 43.7281 101.335C43.6325 101.814 43.59 102.304 43.6016 102.795C43.5546 103.301 43.5046 103.808 43.4513 104.314C43.3454 105.325 43.2269 106.335 43.0956 107.343C42.8337 109.357 42.5227 111.364 42.1626 113.362C41.4427 117.356 40.5278 121.309 39.4216 125.205C38.934 126.921 38.41 128.624 37.8495 130.316C37.3121 131.937 36.6787 133.516 36.2098 135.161C36.1884 135.221 36.179 135.286 36.1823 135.351C36.2251 135.704 37.1181 135.868 37.3806 135.968C37.9128 136.175 38.4674 136.312 39.0317 136.377C39.8372 136.462 41.1992 136.745 41.8354 136.027C41.9724 135.851 42.0798 135.651 42.1531 135.438C42.7104 134.087 43.4713 132.854 44.1075 131.547C44.791 130.142 45.4479 128.724 46.0782 127.292C47.338 124.432 48.491 121.524 49.5372 118.568C50.5834 115.612 51.5186 112.622 52.3429 109.599C53.1671 106.574 53.881 103.519 54.4847 100.434C55.0883 97.3482 55.5774 94.2442 55.9522 91.1215C56.3281 87.9982 56.5891 84.8622 56.7349 81.7135C56.8807 78.5648 56.9096 75.4132 56.8214 72.2585Z" fill="#1A1818"/>
<path d="M41.3152 135.491C39.8461 135.882 38.2925 135.708 36.9346 135.001C41.272 123.424 43.8582 111.205 44.5992 98.7875C45.8929 94.7195 46.7706 90.5181 47.2175 86.2545L49.405 84.8365C49.7854 84.5925 49.4364 83.9645 49.0569 84.2105C48.5814 84.5195 48.1058 84.8255 47.6303 85.1445C47.2736 85.3865 46.7829 85.5715 46.5765 85.9895C46.4514 86.3945 46.3925 86.8188 46.4024 87.2445C46.3406 87.7535 46.2684 88.2605 46.1942 88.7675C43.982 103.555 36.6626 116.967 25.6358 126.436C24.9954 126.982 24.3433 127.512 23.6795 128.027L21.5453 125.978C21.5643 125.996 24.0475 122.457 24.2625 122.126C25.1261 120.792 25.9389 119.428 26.701 118.034C28.2199 115.247 29.5337 112.342 30.6309 109.345C32.8255 103.351 34.149 97.0444 34.5569 90.6365C34.7611 87.4318 34.7315 84.2154 34.4684 81.0155C34.3416 79.4595 34.1571 77.9105 33.9149 76.3685C33.7957 75.6038 33.6626 74.8422 33.5155 74.0835C33.3994 73.4835 33.2301 72.8975 33.1179 72.2995C33.058 71.9895 32.9363 71.8195 33.2539 71.7425C33.9922 71.6533 34.7356 71.6199 35.4785 71.6425C36.3465 71.5679 37.2126 71.4735 38.0768 71.3595C39.7995 71.1315 41.5114 70.8252 43.2126 70.4405C46.6091 69.6707 49.9357 68.5927 53.1551 67.2185C53.6071 67.0258 54.057 66.8258 54.5046 66.6185C54.9502 66.4541 55.3819 66.2507 55.7952 66.0105C57.6482 90.1693 52.6067 114.36 41.3152 135.491Z" fill="white"/>
<path d="M49.424 84.8225C49.4183 84.8225 49.4155 84.8335 49.4098 84.8375L47.2223 86.2545C46.775 90.5178 45.8969 94.7188 44.603 98.7865C44.3818 102.476 43.9978 106.143 43.4513 109.786C46.861 104.776 49.0452 98.9591 49.8111 92.8505C50.1031 90.4505 50.5139 87.1975 49.424 84.8225Z" fill="#C9D6DC"/>
<path d="M47.9908 80.4856C47.9797 80.5092 47.974 80.5352 47.974 80.5616C47.974 80.5879 47.9797 80.6139 47.9908 80.6376C47.9337 82.1276 47.8069 83.6149 47.6104 85.0995C47.607 85.1204 47.607 85.1417 47.6104 85.1626L47.636 85.1456C47.7464 85.0706 47.8595 84.9996 47.9718 84.9246C48.1487 83.5319 48.2653 82.1356 48.3217 80.7356C50.5244 80.3016 50.9058 77.6466 50.7765 75.6676C50.6112 73.2692 50.2536 70.8897 49.7075 68.5546L49.3803 68.6696C49.8066 70.5275 50.1186 72.4124 50.3142 74.3126C50.5235 76.3636 50.7955 79.7776 48.3322 80.3586C48.4504 76.6502 48.1426 72.9404 47.4154 69.3096C47.3051 69.3436 47.1947 69.3796 47.0844 69.4096C47.8135 73.0491 48.1179 76.7686 47.9908 80.4856Z" fill="#1A1818"/>
<path d="M36.3277 83.3175C36.4733 79.3945 36.4742 75.4696 36.4381 71.5446L36.0928 71.5786C36.2212 86.4936 35.7476 101.951 29.034 115.423C27.237 119.061 24.9679 122.42 22.2918 125.402C22.2386 125.327 22.1844 125.252 22.1311 125.177L21.9171 125.477C22.5118 126.344 23.241 127.1 24.0741 127.714L24.3595 127.488C23.6608 126.987 23.0354 126.383 22.503 125.693C22.503 125.693 22.5087 125.693 22.5115 125.687C32.7536 114.383 35.7685 98.4115 36.3277 83.3175Z" fill="#1A1818"/>
<path d="M41.6195 134.941C40.0481 135.011 38.4813 134.715 37.0315 134.074C36.827 133.984 36.7376 134.335 36.9364 134.424C38.4157 135.076 40.014 135.376 41.6166 135.303C41.8411 135.294 41.842 134.931 41.6195 134.941Z" fill="#1A1818"/>
<path d="M36.1803 105.472L36.362 105.435C36.6516 105.399 36.9316 105.302 37.1856 105.152C37.6555 104.831 37.6069 104.19 37.7401 103.681C38.1795 101.989 38.5621 100.284 38.888 98.5635C39.5386 95.1333 39.9675 91.6607 40.172 88.1695C40.5784 81.1937 40.1103 74.192 38.7796 67.3446C37.4534 60.4919 35.2664 53.855 32.2762 47.6085C31.438 45.8619 30.537 44.1505 29.5732 42.4745C29.0812 41.6185 28.574 40.7732 28.0515 39.9385C27.7757 39.5005 27.3763 38.2135 26.702 38.3505C26.5598 38.3929 26.4294 38.4704 26.3215 38.5765C25.2963 39.4325 24.2615 40.2742 23.2172 41.1015C22.6894 41.5205 22.1615 41.9405 21.6413 42.3695C21.4159 42.5555 20.1063 43.4205 20.1063 43.6925C19.4781 44.1491 19.0219 44.8227 18.817 45.5962C18.6122 46.3698 18.6716 47.1943 18.985 47.9265C19.8333 50.1935 21.5186 52.2575 22.7892 54.2775L27.3791 61.5615C29.5001 68.2789 30.1724 75.4085 29.3471 82.4331C28.5218 89.4576 26.2196 96.2008 22.6076 102.174C22.5546 102.195 22.5099 102.235 22.4805 102.286C22.4511 102.337 22.4386 102.397 22.445 102.457C22.4227 102.509 22.4154 102.567 22.4239 102.624C22.4323 102.681 22.4561 102.734 22.4925 102.778C23.3932 108.094 30.0231 106.857 33.6058 106.109C34.4684 105.93 35.3187 105.651 36.1803 105.472Z" fill="#1A1818"/>
<path d="M23.1535 102.621C26.7916 96.6219 29.1268 89.8535 29.9926 82.7975C30.8585 75.7416 30.2337 68.5716 28.1628 61.7985C28.1904 61.7467 28.2031 61.6876 28.1994 61.6283C28.1957 61.569 28.1757 61.5121 28.1419 61.4645L27.9849 61.2165C27.5253 59.7865 26.999 58.3789 26.4062 56.9935C26.2236 56.5685 25.6292 56.9365 25.8108 57.3595C25.9792 57.7515 26.1389 58.1465 26.2958 58.5425C24.4317 55.5925 22.5724 52.6395 20.7178 49.6835C19.9958 48.7782 19.5214 47.6835 19.3454 46.5165C19.3293 45.0375 20.521 44.2595 21.4863 43.4685C23.2249 42.0439 24.966 40.6232 26.7096 39.2065C26.7172 39.2005 26.7229 39.1925 26.7296 39.1865C32.8619 48.6682 36.9379 59.4509 38.6693 70.7718C40.4006 82.0927 39.7451 93.6754 36.7491 104.701C33.2273 105.336 24.0276 108.455 23.1535 102.621Z" fill="white"/>
<path d="M33.1598 62.2296C31.247 62.6131 29.4842 63.5807 28.0915 65.0116C27.4339 65.6591 26.8271 66.3614 26.2769 67.1116C25.6873 67.7394 25.2272 68.4883 24.9254 69.3116C24.861 69.7249 24.9156 70.149 25.0822 70.5295C25.2488 70.9099 25.5198 71.2293 25.8603 71.4466C26.4496 71.7942 27.1123 71.9812 27.7879 71.9905C28.4635 71.9997 29.1306 71.831 29.7283 71.4996C29.7277 71.5265 29.7303 71.5533 29.7359 71.5796C29.8151 71.8397 29.9637 72.0704 30.164 72.2441C30.3644 72.4179 30.608 72.5275 30.8659 72.5597C31.1238 72.592 31.3851 72.5456 31.6186 72.426C31.8522 72.3065 32.0481 72.1189 32.183 71.8856C32.415 71.5358 32.5181 71.1093 32.4731 70.6856C32.8086 70.5857 33.1011 70.3673 33.3012 70.067C33.5013 69.7668 33.5968 69.4032 33.5716 69.0376C34.6178 68.5066 34.4837 67.0686 33.8778 66.1526C33.5417 65.6461 33.0685 65.2576 32.5197 65.0376C33.3566 64.5636 34.769 64.6176 34.8974 63.4136C35.0115 62.3276 33.9558 62.0986 33.1598 62.2296Z" fill="#1A1818"/>
<path d="M33.2149 63.9856C32.6517 64.1516 32.1252 64.433 31.6656 64.8136C31.6656 64.8136 31.6656 64.8226 31.659 64.8266C31.2597 64.7888 30.8571 64.8277 30.4711 64.9416C30.4274 64.9543 30.3864 64.9759 30.3507 65.0052C30.3149 65.0345 30.285 65.0709 30.2626 65.1123C30.2402 65.1538 30.2258 65.1995 30.2202 65.2468C30.2146 65.2941 30.2179 65.3421 30.23 65.3881C30.242 65.434 30.2626 65.4771 30.2905 65.5147C30.3183 65.5523 30.353 65.5838 30.3924 65.6073C30.4318 65.6308 30.4753 65.646 30.5203 65.6519C30.5653 65.6578 30.6109 65.6543 30.6546 65.6416C31.0422 65.5089 31.4556 65.4832 31.8554 65.5669C32.2551 65.6506 32.6276 65.8409 32.9372 66.1196C33.4127 66.5656 34.0718 67.8116 33.4127 68.3016C32.9696 67.5071 32.2964 66.8823 31.4916 66.5186C31.1017 66.2956 30.7536 66.9186 31.1435 67.1446C31.7173 67.4037 32.2245 67.8023 32.6234 68.3076C32.9762 68.8576 33.0266 69.8576 32.2791 69.9966C31.9555 69.3574 31.4738 68.8219 30.8848 68.4466C30.5044 68.1976 30.161 68.8246 30.5367 69.0726C30.8551 69.2318 31.1336 69.4671 31.3501 69.7597C31.5666 70.0522 31.715 70.394 31.7836 70.7576C31.8406 71.5576 30.7108 72.4496 30.4036 71.3876C30.3813 71.3094 30.333 71.2423 30.2675 71.1986C30.4193 71.1024 30.566 70.9976 30.7069 70.8846C31.0541 70.6036 30.707 69.9736 30.3589 70.2586C29.6379 70.8807 28.7387 71.2294 27.8062 71.2486C27.3809 71.2618 26.9578 71.1796 26.565 71.0076C26.3538 70.9515 26.1599 70.839 26.002 70.6811C25.8442 70.5232 25.7277 70.3251 25.6639 70.106C25.6002 69.887 25.5912 69.6543 25.6379 69.4305C25.6847 69.2067 25.7855 68.9994 25.9307 68.8286C26.5824 67.887 27.2809 66.9821 28.023 66.1176C28.799 65.2862 29.6866 64.5787 30.6575 64.0176C31.1393 63.7241 31.6466 63.4797 32.1725 63.2876C33.2568 62.9216 35.3434 62.9826 33.2149 63.9856Z" fill="white"/>
<path d="M73.2731 89.1696C73.3521 88.5937 73.3499 88.0087 73.2664 87.4336C73.2303 86.7449 73.1697 86.0579 73.0848 85.3726C72.9181 84.0354 72.6638 82.7119 72.3239 81.4116C71.6369 78.8485 70.6833 76.3728 69.4802 74.0296C66.9127 69.2774 63.9463 64.7761 60.6162 60.5796C59.0289 58.4596 57.4301 56.3486 55.9046 54.1796C55.1228 53.0686 54.3601 51.9416 53.6297 50.7926C53.2733 50.2319 52.9246 49.6652 52.5835 49.0926C52.378 48.7466 51.68 47.9266 51.7142 47.5156C51.7318 47.4155 51.7582 47.3174 51.7931 47.2226C51.8236 46.6709 51.7502 46.1183 51.5772 45.5966C51.4656 45.0159 51.3369 44.4399 51.1911 43.8686C50.8934 42.6901 50.5119 41.5369 50.0498 40.4186C49.2025 38.2279 47.8726 36.2802 46.1694 34.7356C45.566 34.2226 44.8663 33.8495 44.1161 33.6408C43.3659 33.4321 42.5822 33.3925 41.8164 33.5246C40.2824 33.7308 38.7613 34.0313 37.2608 34.4246C36.4876 34.6156 35.7162 34.8166 34.9421 35.0076C34.2145 35.1866 32.766 35.4176 33.8008 36.4356C34.2269 36.7722 34.6841 37.063 35.1656 37.3036C35.7702 37.6983 36.3402 38.1487 36.8689 38.6496C37.8937 39.6381 38.7915 40.7629 39.5396 41.9956C40.9989 44.5275 42.2295 47.1974 43.2154 49.9706C44.16 52.6011 45.3737 55.1159 46.8352 57.4706C48.2825 59.5464 49.8688 61.5111 51.582 63.3496C55.4394 67.4434 58.4868 72.3007 60.5477 77.6406C61.5345 80.3829 62.2205 83.2347 62.5925 86.1406C62.7805 87.6079 62.8891 89.0853 62.9178 90.5656C62.9425 91.8256 62.3976 93.2876 62.8664 94.5096C62.8946 94.5935 62.9403 94.6696 63.0003 94.7325C63.0602 94.7953 63.1328 94.8432 63.2126 94.8726C63.3293 94.8987 63.4501 94.8959 63.5655 94.8645C64.4664 94.6469 65.3485 94.3509 66.2028 93.9796C67.3904 93.5114 68.5385 92.9394 69.6352 92.2695C69.9053 92.1045 72.7538 90.0926 72.6996 90.0316C72.7072 90.0383 72.7151 90.0447 72.7233 90.0506C72.8888 89.8656 73.0399 89.667 73.1751 89.4566C73.2179 89.365 73.2507 89.2688 73.2731 89.1696Z" fill="#1A1818"/>
<path d="M63.5188 94.0856C64.2635 82.6526 60.1901 72.0686 52.8545 63.7336C50.7547 61.5245 48.8291 59.1396 47.0967 56.6026C45.4833 53.7704 44.1283 50.7841 43.0499 47.6836C41.1858 42.9886 38.7863 38.1836 34.205 35.9326C36.128 35.4959 38.0508 35.0596 39.9732 34.6236C42.446 34.0676 44.544 33.9296 46.4205 35.9876C48.8368 38.8699 50.4206 42.4175 50.9857 46.2136C50.6775 45.6136 50.3817 45.0136 50.104 44.3986C49.9138 43.9776 49.3175 44.3456 49.5086 44.7646C56.3563 59.7846 72.6929 71.1876 72.613 89.1466C69.9906 91.5179 66.8758 93.2096 63.5188 94.0856Z" fill="white"/>
<path d="M25.049 32.9646C24.7568 32.7862 24.4322 32.6745 24.0963 32.6365C23.7604 32.5986 23.4206 32.6353 23.099 32.7443C22.7775 32.8533 22.4813 33.0321 22.2297 33.2692C21.978 33.5063 21.7766 33.7964 21.6385 34.1206C21.3791 34.7406 21.3576 35.442 21.5787 36.0783C21.7997 36.7145 22.2461 37.2363 22.8245 37.5346C23.3963 37.8076 24.0456 37.8408 24.6398 37.6275C25.2341 37.4141 25.7285 36.9703 26.022 36.3866C26.2557 35.7913 26.2894 35.13 26.1176 34.5119C25.9457 33.8938 25.5785 33.3557 25.0766 32.9866L25.049 32.9646Z" fill="#1A1818"/>
<path d="M25.4228 36.0236C25.3141 36.2468 25.1637 36.4447 24.9806 36.6055C24.7975 36.7663 24.5855 36.8867 24.3572 36.9595C24.1289 37.0323 23.889 37.056 23.6518 37.0292C23.4146 37.0024 23.185 36.9257 22.9767 36.8036C22.5841 36.5473 22.2989 36.1435 22.1789 35.6742C22.059 35.205 22.1133 34.7053 22.3309 34.2766C23.3904 32.2726 26.3244 34.0506 25.4228 36.0236Z" fill="white"/>
<path d="M37.6764 24.8226C37.3843 24.6442 37.0597 24.5325 36.7239 24.4945C36.388 24.4566 36.0483 24.4933 35.7268 24.6023C35.4053 24.7113 35.1092 24.8902 34.8577 25.1273C34.6062 25.3644 34.4049 25.6544 34.2668 25.9786C34.0074 26.5986 33.9859 27.3 34.2069 27.9363C34.428 28.5726 34.8744 29.0943 35.4528 29.3926C36.0245 29.6659 36.6739 29.6992 37.2682 29.4858C37.8626 29.2724 38.3569 28.8284 38.6503 28.2446C38.8842 27.6493 38.918 26.988 38.7461 26.3698C38.5742 25.7516 38.2069 25.2136 37.7049 24.8446L37.6764 24.8226Z" fill="#1A1818"/>
<path d="M38.0511 27.8856C37.9423 28.1087 37.7918 28.3065 37.6087 28.4672C37.4256 28.628 37.2136 28.7483 36.9854 28.8211C36.7571 28.8938 36.5173 28.9176 36.2801 28.8909C36.043 28.8641 35.8134 28.7875 35.6049 28.6655C35.2123 28.409 34.9271 28.0051 34.8072 27.5357C34.6872 27.0662 34.7416 26.5664 34.9592 26.1375C36.0177 24.1325 38.9527 25.9076 38.0511 27.8856Z" fill="white"/>
<path d="M34.6748 37.3586C34.4072 36.9794 34.2153 36.5472 34.1107 36.088C34.0061 35.6288 33.9909 35.1521 34.0661 34.6866C35.2769 33.3531 36.0814 31.6699 36.3765 29.8527C36.6717 28.0355 36.4441 26.1669 35.7229 24.4866C34.8816 22.4095 33.649 20.5332 32.0993 18.9706C31.3385 18.1706 30.5301 17.4236 29.6998 16.7056C29.2249 16.2449 28.7114 15.8302 28.1657 15.4666C26.88 14.7232 25.4238 14.3681 23.9582 14.4406C23.0874 14.5017 22.2361 14.7394 21.4511 15.1406C19.8599 15.9831 18.5719 17.3461 17.781 19.0246C17.2118 20.139 16.8905 21.3747 16.8413 22.6386C16.4609 29.2246 21.7441 33.9476 26.9169 36.4386C26.9226 36.4386 26.9283 36.4386 26.934 36.4386C27.1572 37.4512 27.3792 38.4646 27.5998 39.4786C27.6835 40.2942 27.9133 41.0858 28.277 41.8116C28.9694 42.8266 30.2438 42.8186 31.3061 42.6876C32.7603 42.5086 34.4218 42.0066 35.196 40.5706C35.4765 40.0714 35.5868 39.4867 35.5088 38.9129C35.4308 38.339 35.1692 37.8101 34.7671 37.4136C34.7391 37.3904 34.708 37.3719 34.6748 37.3586Z" fill="#1A1818"/>
<path d="M29.6436 41.9485C28.3226 41.2615 28.1781 39.6035 28.0763 38.2345C28.0963 37.4375 27.8961 36.6514 27.4999 35.9715C27.0396 35.3955 26.2008 35.3855 25.6102 35.0335C25.0452 34.6975 24.5364 34.2735 23.9934 33.8985C22.9901 33.2146 22.0498 32.4336 21.1848 31.5655C19.4312 29.8582 18.214 27.6296 17.6954 25.1765C17.6706 25.0479 17.6481 24.9189 17.6278 24.7895V24.7765C17.3552 22.9164 17.6429 21.0132 18.4505 19.3335C19.1926 17.7104 20.4494 16.4099 22.0047 15.6555C22.6648 15.3567 23.3713 15.1872 24.0894 15.1555C25.0876 15.1066 26.0846 15.2769 27.0168 15.6555C28.9551 16.4555 30.3959 18.1555 31.8121 19.6935C32.8869 20.8315 33.8042 22.1228 34.5369 23.5295C35.6686 25.6591 36.0291 28.1473 35.5517 30.5345C35.2846 31.7088 34.7537 32.7986 34.0034 33.7125C33.5212 34.2965 33.3091 34.4255 33.3376 35.2395C33.3536 36.2676 33.704 37.259 34.3305 38.0485C36.3439 40.4945 31.5724 42.9505 29.6436 41.9485Z" fill="white"/>
<path d="M34.3267 38.0416C33.7003 37.252 33.3498 36.2607 33.3338 35.2326C33.311 34.9726 33.3475 34.7107 33.4403 34.4686C32.8011 34.6951 32.1393 34.8438 31.4678 34.9116C30.7954 34.8677 30.1298 35.0748 29.5885 35.4966C28.4101 36.7406 29.8539 38.2016 30.882 38.7966C32.0375 39.4686 33.5716 40.0386 34.807 39.4086C34.8216 39.1581 34.7864 38.9073 34.7037 38.6719C34.621 38.4366 34.4926 38.2219 34.3267 38.0416Z" fill="#C9D6DC"/>
<path d="M31.8112 19.6856C30.395 18.1506 28.9579 16.4496 27.0159 15.6476C26.0837 15.269 25.0867 15.0987 24.0885 15.1476C23.3704 15.1793 22.6638 15.3487 22.0037 15.6476C20.4484 16.402 19.1917 17.7025 18.4496 19.3256C17.642 21.0053 17.3543 22.9085 17.6269 24.7686V24.7816C17.6472 24.9116 17.6697 25.0406 17.6944 25.1686C18.2131 27.6216 19.4303 29.8503 21.1839 31.5576C21.8903 32.2679 22.6491 32.9182 23.4531 33.5026C23.7385 33.3736 23.6434 33.0336 23.4284 32.9026C24.0296 29.7185 23.9894 26.4373 23.3105 23.2706C26.5555 23.1926 29.6827 21.3066 32.8554 20.9096C32.5245 20.4889 32.1764 20.0809 31.8112 19.6856Z" fill="#C9D6DC"/>
<path d="M20.8653 23.1165C19.7944 21.2505 17.0753 18.2246 15.0476 20.7646C13.4231 22.7996 14.5254 26.3296 15.5897 28.3446C16.4375 29.9496 17.6289 31.3252 19.0697 32.3626C19.7354 32.8416 22.6894 34.9075 23.3219 33.7526C23.6072 33.2375 23.3466 31.8766 23.3048 31.2906C23.2395 30.3593 23.1101 29.4342 22.9177 28.5226C22.5307 26.6908 21.8752 24.9335 20.9746 23.3136C20.9404 23.2476 20.9033 23.1825 20.8653 23.1165Z" fill="#1A1818"/>
<path d="M15.0114 22.7575C15.4033 19.9835 18.0644 20.4065 19.4006 22.1365C20.1395 23.1307 20.7515 24.2223 21.221 25.3835C22.266 27.883 22.758 30.5992 22.6599 33.3275C18.5475 32.1385 14.3305 27.5745 15.0114 22.7575Z" fill="#1A1818"/>
<path d="M25.0443 10.1915C20.2195 10.7645 14.0966 15.0986 15.9939 20.9426C16.0153 21.0125 16.0543 21.075 16.1067 21.1236C16.1591 21.1722 16.223 21.205 16.2916 21.2186C16.3194 21.2476 16.3515 21.2715 16.3867 21.2896C22.8131 24.3296 28.6137 17.1145 35.0277 19.4805C35.0881 19.4975 35.1513 19.4997 35.2126 19.487C35.2739 19.4742 35.3316 19.447 35.3814 19.4072C35.4311 19.3675 35.4715 19.3163 35.4996 19.2576C35.5276 19.1989 35.5425 19.1342 35.5432 19.0686C35.4214 13.2836 30.2695 9.57254 25.0443 10.1915Z" fill="#1A1818"/>
<path d="M16.7966 20.5486C16.7746 20.5408 16.752 20.5351 16.7291 20.5316C15.1256 15.0956 21.2761 11.2426 25.7072 10.9826C30.0821 10.7266 34.2754 13.7826 34.6976 18.4746C28.529 16.7116 22.8245 23.4026 16.7966 20.5486Z" fill="#1A1818"/>
<path d="M28.3102 26.3275C28.2711 26.1761 28.19 26.0403 28.0772 25.9375C27.42 25.3865 26.9978 26.4535 27.2526 27.0035C27.2951 27.1234 27.3684 27.2285 27.4642 27.3072C27.5601 27.386 27.6748 27.4352 27.7957 27.4495C28.3036 27.4405 28.4472 26.7995 28.3102 26.3275Z" fill="#1A1818"/>
<path d="M32.7784 24.3295C32.7396 24.1785 32.6588 24.043 32.5463 23.9405C31.8882 23.3885 31.4668 24.4565 31.7217 25.0065C31.7641 25.1266 31.8372 25.2319 31.9331 25.3108C32.029 25.3897 32.1438 25.4391 32.2648 25.4535C32.7708 25.4465 32.9144 24.8055 32.7784 24.3295Z" fill="#1A1818"/>
<path d="M32.1593 26.4985C32.1564 26.4032 32.1191 26.3126 32.055 26.2452C31.9909 26.1777 31.9047 26.1385 31.814 26.1355C31.6503 26.121 31.4913 26.071 31.3468 25.9887C31.2024 25.9064 31.0757 25.7935 30.9748 25.6572C30.8739 25.521 30.8008 25.3642 30.7603 25.1968C30.7198 25.0294 30.7126 24.855 30.7393 24.6845C30.7793 24.2205 30.0888 24.2225 30.0498 24.6845C30.0003 25.1603 30.1192 25.6387 30.3837 26.0282C30.6483 26.4177 31.04 26.6913 31.484 26.7965C31.4999 27.1239 31.5157 27.4512 31.5316 27.7785C31.5534 28.2425 32.2439 28.2455 32.2211 27.7785C32.2008 27.3512 32.1802 26.9245 32.1593 26.4985Z" fill="#1A1818"/>
<path d="M31.4754 28.5775C31.4748 28.5197 31.4608 28.4629 31.4348 28.412C31.4087 28.3611 31.3714 28.3175 31.3259 28.285C31.2805 28.2525 31.2282 28.232 31.1736 28.2253C31.119 28.2186 31.0636 28.2259 31.0123 28.2465C30.5367 28.2355 30.0612 28.2225 29.5857 28.2155C29.4344 28.1844 29.278 28.1957 29.1322 28.2484C28.9864 28.3011 28.8565 28.3932 28.7554 28.5155C28.393 29.0735 28.7687 30.1155 29.1358 30.5685C29.235 30.6968 29.3575 30.8029 29.4963 30.8806C29.635 30.9583 29.7871 31.0062 29.9436 31.0212C30.1002 31.0363 30.258 31.0184 30.4079 30.9685C30.5578 30.9186 30.6966 30.8377 30.8163 30.7305C31.0786 30.4508 31.2749 30.1104 31.3894 29.7364C31.5038 29.3625 31.5333 28.9656 31.4754 28.5775Z" fill="#1A1818"/>
</svg>
