<svg width="21" height="20" viewBox="0 0 21 20" fill="none" xmlns="http://www.w3.org/2000/svg">
<path d="M1.15486 6.47501H5.20587V19.5H1.15486V6.47501ZM3.18787 0C3.65245 0 4.10661 0.137763 4.4929 0.395874C4.8792 0.653986 5.18027 1.02085 5.35806 1.45007C5.53585 1.8793 5.58237 2.3516 5.49173 2.80727C5.40109 3.26293 5.17738 3.68148 4.84886 4.00999C4.52035 4.33851 4.10179 4.56223 3.64613 4.65286C3.19047 4.7435 2.71816 4.69699 2.28894 4.5192C1.85972 4.34141 1.49285 4.04033 1.23474 3.65404C0.97663 3.26775 0.838867 2.81359 0.838867 2.349C0.839661 1.72625 1.0874 1.12924 1.52775 0.688889C1.9681 0.248538 2.56512 0.000793819 3.18787 0Z" fill="#007BB6"/>
<path d="M7.75085 6.475H11.6279V8.25899H11.6808C12.0698 7.59503 12.6317 7.04904 13.3065 6.67922C13.9814 6.3094 14.7439 6.1296 15.5128 6.15899C19.6128 6.15899 20.3689 8.859 20.3689 12.359V19.496H16.3259V13.164C16.3259 11.651 16.3028 9.708 14.2258 9.708C12.1178 9.708 11.8018 11.357 11.8018 13.051V19.496H7.75885V6.475H7.75085Z" fill="#007BB6"/>
</svg>
